<svg width="194" height="194" viewBox="0 0 194 194" fill="none" xmlns="http://www.w3.org/2000/svg">
<path d="M185.673 141.992C169.686 151.923 109.536 157.861 99.5298 119.029L102.259 97.0943C102.259 97.0943 95.397 44.7209 135.206 35.8179H150.219C150.219 35.8179 172.845 35.1722 183.066 57.2345C193.286 79.2967 193.616 105.224 189.698 114.518C189.698 114.518 190.536 115.75 191.474 117.738C191.761 118.349 192.055 119.029 192.341 119.768C194.633 125.732 196.137 135.493 185.673 141.992Z" fill="#F25353"/>
<path d="M191.474 117.738C172.207 147.752 125.307 128.578 125.307 128.578C161.743 134.278 189.698 114.518 189.698 114.518C189.698 114.518 190.536 115.742 191.474 117.738Z" fill="#C14040"/>
<path d="M151.529 40.6094C151.529 40.6094 164.415 45.4432 168.01 52.6047C171.606 59.7662 169.808 81.82 172.25 89.5592C174.7 97.2983 173.303 111.248 164.988 112.785C156.672 114.323 154.795 115.368 148.922 118.97C143.049 122.572 118.775 114.986 111.663 92.6005C104.551 70.2154 122.328 61.6946 122.328 61.6946L136.066 48.9262L151.529 40.6094Z" fill="#C14040"/>
<path d="M92.1382 133.973L92.5894 147.828L95.347 147.573L94.9745 133.871L92.1382 133.973Z" fill="#7F4F3E"/>
<path d="M81.6594 133.149L72.7063 156.443L75.8649 158.601L84.9899 133.752L81.6594 133.149Z" fill="#7F4F3E"/>
<path d="M102.23 133.522L108.612 156.443L111.656 154.574L105.317 131.781L102.23 133.522Z" fill="#96695C"/>
<path d="M103.741 134.125C98.8709 137.685 93.0478 138.755 88.4924 137.965C87.8765 137.863 87.282 137.719 86.7233 137.541C86.2936 137.413 85.8853 137.26 85.4914 137.09C85.1691 136.954 84.8682 136.802 84.5746 136.64C84.4027 136.547 84.2308 136.445 84.0732 136.351C83.9156 136.258 83.7652 136.164 83.6291 136.062C80.3416 133.811 80.3344 130.948 79.7256 128.17L79.9619 127.032L80.2556 125.63L100.769 120.839C103.877 121.408 104.794 122.198 105.826 123.931C108.11 127.805 106.85 131.857 103.741 134.125Z" fill="#96695C"/>
<path d="M105.675 125.766C105.654 122.385 99.7947 119.692 92.5821 119.76C85.3766 119.828 81.337 123.379 81.3656 126.768C81.3943 130.158 85.4554 132.078 92.668 132.01C99.8734 131.951 105.697 129.147 105.675 125.766Z" fill="#7F4F3E"/>
<path d="M75.865 158.6L79.7184 156.765L85.2836 135L84.0445 136.334L75.865 158.6Z" fill="#96695C"/>
<path d="M92.5892 147.828L92.138 145.874L91.6438 136.122L92.4531 137.863L92.5892 147.828Z" fill="#96695C"/>
<path d="M108.612 156.443L106.384 155.347L102.022 135.196L102.595 134.822L108.612 156.443Z" fill="#7F4F3E"/>
<path d="M132.756 47.499C132.756 47.499 116.225 64.7869 92.5105 57.1751C92.5105 57.1751 92.5391 74.0808 114.005 77.309C135.471 80.5372 132.756 47.499 132.756 47.499Z" fill="#D3D3D3"/>
<path d="M136.653 8.21674C136.345 9.38909 135.335 10.0602 134.404 9.71191C133.96 9.5505 133.616 9.18521 133.408 8.71797C133.179 8.20825 133.122 7.5796 133.279 6.95944C133.494 6.1439 134.046 5.57471 134.669 5.4133C134.948 5.34534 135.235 5.35384 135.521 5.45578C136.459 5.81258 136.961 7.0444 136.653 8.21674Z" fill="#2B2B2B"/>
<path d="M118.238 97.0942C118.131 97.0942 111.169 102.123 111.169 102.123L114.757 105.088L121.175 100.059L118.238 97.0942Z" fill="#D88248"/>
<path d="M158.212 106.32L156.708 104.077L153.535 99.3541C153.52 99.3711 153.506 99.3796 153.492 99.3966C153.477 99.4136 153.463 99.4221 153.449 99.4391C151.608 101.181 149.646 102.735 147.619 104.077C145.799 105.275 143.93 106.303 142.039 107.119C139.776 108.096 137.491 108.767 135.227 109.09C132.771 109.438 130.35 109.379 128.036 108.835C119.771 106.898 104.651 84.0626 118.897 69.2299C133.143 54.3971 133.258 28.9792 133.258 28.9792C133.258 28.9792 133.215 28.3506 133.143 27.3736C132.964 24.7911 132.627 19.7873 132.549 17.8164C132.506 16.7715 132.692 14.138 133.351 11.2241C134.397 6.60268 136.631 1.26764 141.036 0.392629C141.939 0.214228 142.827 0.0868 143.693 0.0273331C149.703 -0.346459 154.416 2.9667 152.897 19.0907C151.157 37.5425 156.708 45.7914 156.708 45.7914C174.413 68.5247 158.212 106.32 158.212 106.32Z" fill="#EFEFEF"/>
<path d="M133.158 27.688L140.814 23.0071C141.81 22.3954 142.433 21.1806 142.433 19.8553V19.3711C142.44 19.3711 133.093 25.4112 133.158 27.688Z" fill="#D88248"/>
<path d="M141.344 13.263L142.44 19.3711C142.44 19.3711 131.997 27.6285 130.364 31.3665C128.731 35.1044 120.251 30.0752 121.554 26.4647C122.858 22.8542 132.542 17.1539 132.542 17.1539C132.542 17.1539 131.525 13.8832 133.344 11.2327L135.385 13.2375C135.743 13.7388 136.581 13.2885 137.104 13.0761L139.582 12.0737C140.349 11.7764 141.172 12.3286 141.344 13.263Z" fill="#FFA364"/>
<path d="M117.637 116.149C117.637 116.149 113.403 117.483 107.466 119.386C106.212 119.785 104.88 120.21 103.498 120.652C100.611 121.578 97.5028 122.58 94.38 123.591C88.8362 125.384 83.2638 127.219 78.8589 128.705C76.1228 129.631 73.9311 130.039 72.1548 130.048C65.0281 130.082 64.6056 123.787 62.8651 119.547C61.7835 116.914 59.6491 109.837 59.5059 103.211C59.4772 101.869 59.5345 100.552 59.6921 99.2861C60.3296 94.2654 62.6717 90.1792 68.3014 89.61C80.6352 88.3612 80.1553 109.345 80.1553 109.345C80.1553 109.345 80.1625 109.336 80.1768 109.328C80.3129 109.243 81.1007 108.741 82.304 107.985C83.6792 107.119 85.5988 105.921 87.7332 104.613C88.3921 104.205 89.0726 103.789 89.7602 103.372C90.548 102.897 91.3502 102.404 92.1524 101.928C96.4714 99.3371 100.726 96.899 102.56 96.1938C103.627 95.7861 104.658 95.5057 105.661 95.3868C108.748 95.03 111.62 96.2023 114.743 99.8043C118.89 104.579 117.637 116.149 117.637 116.149Z" fill="#EFEFEF"/>
<path d="M103.498 120.652C100.611 121.578 97.5027 122.58 94.3799 123.591C94.3799 123.591 103.498 110.916 98.0041 100.586C98.0041 100.577 106.492 109.625 103.498 120.652Z" fill="#D3D3D3"/>
<path d="M86.8091 119.828C91.5435 112.029 89.7815 103.381 89.7815 103.381C90.5694 102.905 91.3716 102.412 92.1738 101.937C93.9429 116.319 86.8091 119.828 86.8091 119.828Z" fill="#D3D3D3"/>
<path d="M117.637 116.149C117.637 116.149 113.404 117.483 107.466 119.386C115.667 110.585 105.682 95.3868 105.682 95.3868C108.769 95.03 111.642 96.2023 114.764 99.8043C118.89 104.579 117.637 116.149 117.637 116.149Z" fill="#D3D3D3"/>
<path d="M137.763 106.584L114.163 117.806L116.884 153.928L114.055 167.86C114.055 167.86 113.926 167.716 113.697 167.512C113.124 166.993 111.914 166.084 110.574 166.161C110.324 166.178 110.066 166.22 109.808 166.314C109.808 166.314 109.672 166.067 109.335 165.719C108.726 165.082 107.466 164.105 105.174 163.672C104.665 163.578 104.107 163.51 103.498 163.476L114.7 154.446L111.434 115.487L134.06 102.2C134.067 102.192 138.522 101.291 137.763 106.584Z" fill="#FFA364"/>
<path d="M153.485 99.3965C153.47 99.4135 153.456 99.422 153.442 99.439C151.601 101.181 149.638 102.735 147.611 104.077C145.857 105.241 144.052 106.235 142.225 107.034C142.118 107.085 141.996 107.017 141.946 106.889C135.679 89.559 141.76 70.4106 144.976 62.3486C145.09 62.0598 145.463 62.2297 145.384 62.5355C140.105 82.8902 153.463 99.3455 153.463 99.3455L153.485 99.3965Z" fill="#D3D3D3"/>
<path d="M76.0368 125.893C75.5067 128.128 73.845 129.359 72.1619 130.048C72.0902 130.048 72.0186 130.048 71.947 130.048C65.028 129.963 64.5983 123.744 62.8721 119.547C61.7906 116.914 59.6562 109.837 59.5129 103.211L59.5416 102.642L59.6992 99.2861C59.6992 99.2861 62.5427 92.5834 67.2198 97.0944C71.8969 101.605 77.2329 120.881 76.0368 125.893Z" fill="#D3D3D3"/>
<path d="M144.023 8.76568C144.333 7.59273 144 6.42444 143.279 6.15622C142.558 5.88801 141.722 6.62144 141.412 7.7944C141.102 8.96735 141.435 10.1356 142.156 10.4039C142.877 10.6721 143.713 9.93864 144.023 8.76568Z" fill="#2B2B2B"/>
<path d="M135.786 19.762L135.879 19.8384C136.116 20.0253 136.116 20.4416 135.879 20.637L134.49 21.7329C134.325 21.8603 134.11 21.8348 133.974 21.6649C133.831 21.4865 133.824 21.2147 133.96 21.0278L134.891 19.7365C134.991 19.5921 135.149 19.5411 135.299 19.5836L135.664 19.7025C135.715 19.711 135.75 19.728 135.786 19.762Z" fill="#2B2B2B"/>
<path d="M132.405 18.3773L132.484 18.4367C132.678 18.5812 132.671 18.8785 132.47 19.0059L131.302 19.7535C131.166 19.8385 130.987 19.813 130.88 19.694C130.765 19.5666 130.765 19.3627 130.88 19.2353L131.668 18.3348C131.754 18.2414 131.89 18.1989 132.012 18.2414L132.312 18.3348C132.348 18.3348 132.377 18.3518 132.405 18.3773Z" fill="#2B2B2B"/>
<path d="M87.7475 104.621C86.9166 107.875 79.8329 117.186 80.1696 115.886C80.5707 114.34 80.1696 109.353 80.1696 109.353C80.1696 109.353 80.1767 109.344 80.1911 109.336C80.3272 109.251 81.115 108.75 82.3183 107.994C83.6935 107.136 85.6202 105.929 87.7475 104.621Z" fill="#D3D3D3"/>
<path d="M158.212 106.32L156.708 104.078C167.366 70.2154 162.867 64.1413 156.636 50.9566C149.889 36.676 150.978 21.7583 150.433 11.9548C149.896 2.22771 143.772 0.078404 143.679 0.0444229C149.689 -0.329369 154.401 2.98379 152.883 19.1078C152.231 26.0315 152.604 31.5194 153.327 35.6821C154.101 40.1506 155.805 44.3133 158.19 47.8898C173.461 70.7506 158.212 106.32 158.212 106.32Z" fill="#D3D3D3"/>
<path d="M112.573 158.507L109.335 165.711C108.726 165.074 107.466 164.097 105.174 163.663L112.573 158.507Z" fill="#D88248"/>
<path d="M114.578 158.294L113.697 167.512C113.124 166.994 111.914 166.085 110.574 166.161L114.578 158.294Z" fill="#D88248"/>
<path d="M84.4457 123.387C84.3454 123.549 84.152 123.557 84.0302 123.413C83.8225 123.158 82.0176 120.881 82.1895 119.607C82.2325 119.301 82.3757 119.055 82.6192 118.902C83.0203 118.647 83.4143 118.596 83.7796 118.74C83.9085 118.791 84.0159 118.859 84.1234 118.944C84.238 119.038 84.3884 118.978 84.4528 118.825C84.5531 118.57 84.6964 118.35 84.9041 118.231C85.0831 118.129 85.384 118.078 85.7707 118.401C85.957 118.553 86.0715 118.791 86.1074 119.08C86.2864 120.456 84.6319 123.09 84.4457 123.387ZM83.3641 119.31C83.2066 119.31 83.049 119.361 82.8699 119.479C82.784 119.53 82.741 119.607 82.7267 119.709C82.6479 120.278 83.3068 121.433 83.9371 122.317C84.0732 122.504 84.3167 122.487 84.4313 122.283C84.9685 121.323 85.6561 119.896 85.563 119.182C85.5415 119.029 85.4914 118.97 85.4484 118.936C85.3481 118.851 85.2192 118.766 85.1261 118.817C84.9256 118.927 84.7823 119.547 84.7537 119.955L84.7107 120.524C84.6964 120.694 84.503 120.737 84.4385 120.584L84.2308 120.066C84.2308 120.057 84.0016 119.513 83.5933 119.352C83.5217 119.327 83.4429 119.31 83.3641 119.31Z" fill="#474747"/>
<path d="M88.7217 116.693C88.7002 116.514 88.6142 116.37 88.471 116.285C88.2346 116.132 88.0054 116.107 87.7905 116.192C87.6616 116.243 87.547 116.328 87.4467 116.455C87.3894 116.234 87.2892 115.988 87.1101 115.886C86.9597 115.801 86.7878 115.835 86.6016 115.988C86.4941 116.081 86.4297 116.209 86.401 116.379C86.2936 117.203 87.3465 118.868 87.3894 118.944L87.4969 119.114L87.6186 118.961C87.7476 118.8 88.8219 117.449 88.7217 116.693ZM88.428 116.744C88.4853 117.16 87.9338 117.993 87.6903 118.332C87.6544 118.383 87.5971 118.417 87.5327 118.409C87.4754 118.409 87.4181 118.366 87.3894 118.307C87.1602 117.899 86.6374 116.905 86.7018 116.421C86.709 116.345 86.7376 116.294 86.7735 116.26C86.8379 116.209 86.8952 116.175 86.9382 116.175C86.9525 116.175 86.9668 116.175 86.9812 116.183C87.1101 116.251 87.196 116.642 87.2104 116.88V116.914L87.282 116.931C87.3894 116.956 87.504 116.905 87.5685 116.795C87.633 116.693 87.7404 116.557 87.8836 116.506C88.0197 116.455 88.1701 116.481 88.3277 116.582C88.3922 116.625 88.4208 116.676 88.428 116.744Z" fill="#474747"/>
<path opacity="0.44" d="M44.0062 115.368C44.0062 115.368 46.2624 118.655 46.3699 125.757C46.4773 132.851 46.1407 138.738 44.0062 141.304L42.5093 119.632L44.0062 115.368Z" fill="#D7DCFF"/>
<path opacity="0.44" d="M81.3944 133.811L72.7063 156.459C72.7063 156.459 74.8479 157.921 74.7476 157.861C74.6545 157.793 82.7767 135.408 82.7767 135.408L81.3944 133.811Z" fill="#D7DCFF"/>
<path opacity="0.44" d="M88.4923 137.957C87.8763 137.855 87.2818 137.71 86.7232 137.532C85.7705 137.15 84.732 136.725 84.5673 136.631C84.3954 136.538 84.2235 136.436 84.0659 136.343C83.9298 136.241 83.7794 136.147 83.6218 136.054C80.3342 133.802 80.3271 130.94 79.7183 128.162V128.408L81.516 127.805C81.4874 128.009 81.3656 126.556 81.3656 126.76C81.3871 129.521 84.1017 131.313 89.0223 131.84C89.6168 132.103 90.7556 133.191 88.4923 137.957Z" fill="#D7DCFF"/>
<path opacity="0.44" d="M141.652 22.2424L133.136 27.3736C133.201 28.3505 133.251 28.9792 133.251 28.9792C133.251 28.9792 133.143 54.397 118.89 69.2298C106.241 82.3975 116.734 101.869 125.035 107.433C125.114 107.391 125.2 107.34 125.279 107.297C125.522 107.153 125.773 107.034 126.024 106.915C126.582 106.635 127.127 106.32 127.671 105.997C128.165 105.7 128.638 105.36 129.147 105.097C129.583 104.867 130.028 104.647 130.407 104.29C124.391 98.5385 129.039 75.2445 136.058 66.265C143.228 57.1071 141.652 22.2424 141.652 22.2424Z" fill="#D7DCFF"/>
<path opacity="0.44" d="M141.122 12.6684C140.785 12.1162 140.169 11.8529 139.589 12.0822L137.111 13.0847C136.588 13.2971 135.75 13.7388 135.392 13.2461L133.351 11.2412C134.397 6.61977 136.631 1.28475 141.036 0.409732C141.939 0.231331 142.827 0.103901 143.693 0.0444336C138.443 4.80179 141.065 12.5155 141.122 12.6684Z" fill="#D7DCFF"/>
<path opacity="0.44" d="M71.947 130.039C65.0281 129.954 64.5983 123.736 62.8721 119.539C61.7906 116.905 59.6562 109.829 59.5129 103.202L59.5416 102.633C59.7565 101.648 61.0099 96.4827 63.4666 96.831C66.1454 97.2218 76.1729 118.502 71.947 130.039Z" fill="#D7DCFF"/>
<path d="M142.426 6.56015C142.426 6.56015 141.28 7.91939 141.81 9.44005C141.81 9.44005 142.096 9.98374 142.204 10.0177C142.311 10.0517 141.917 8.2592 142.956 6.89996C142.956 6.89996 142.676 6.35627 142.426 6.56015Z" fill="#CDCFE8"/>
<path d="M134.669 5.42188C134.153 5.95708 133.473 6.9935 133.401 8.71804C133.172 8.20833 133.114 7.57968 133.272 6.95952C133.494 6.15247 134.046 5.58329 134.669 5.42188Z" fill="#CDCFE8"/>
<path d="M25.9998 154.522V194L51.0111 182.463V144.982L25.9998 154.522Z" fill="#8E7470"/>
<path d="M25.9998 154.522L0 140.854V178.267L25.9998 194V154.522Z" fill="#3D3230"/>
<path d="M0 140.854L24.4742 133.624L51.0111 144.982L25.9998 154.522L0 140.854Z" fill="#3D3230"/>
<path d="M24.0372 118.876V149.858L8.91724 141.694V114.102L24.0372 118.876Z" fill="#191919"/>
<path d="M24.0374 149.858L44.0063 143.147L43.9992 111.978L24.0374 118.876V149.858Z" fill="#474747"/>
<path d="M8.91724 114.102L28.6069 108.342L43.999 111.978L24.0372 118.876L8.91724 114.102Z" fill="#191919"/>
<path d="M22.7695 113.626C22.7695 114.586 24.5028 115.368 26.6373 115.368C28.7717 115.368 30.505 114.586 30.505 113.626V111.885H22.7695V113.626Z" fill="#2B2B2B"/>
<path d="M26.6302 113.626C28.7663 113.626 30.4979 112.846 30.4979 111.885C30.4979 110.923 28.7663 110.143 26.6302 110.143C24.4941 110.143 22.7625 110.923 22.7625 111.885C22.7625 112.846 24.4941 113.626 26.6302 113.626Z" fill="#AAAAAA"/>
<path d="M26.0715 111.579L16.2159 79.7131C16.13 79.4497 16.2518 79.1524 16.4738 79.0504C16.6958 78.9485 16.9465 79.0929 17.0325 79.3563L26.888 111.222C26.974 111.485 26.8522 111.783 26.6302 111.885C26.4081 111.987 26.1575 111.851 26.0715 111.579Z" fill="#191919"/>
<path d="M26.63 111.885C26.4152 111.749 26.3364 111.434 26.451 111.188L43.3472 73.7578C43.4618 73.503 43.7268 73.4095 43.9346 73.5455C44.1494 73.6814 44.2282 73.9957 44.1136 74.2421L27.2174 111.672C27.1099 111.927 26.8449 112.021 26.63 111.885Z" fill="#191919"/>
<path d="M16.1943 78.8125C16.4752 78.8125 16.7029 78.5425 16.7029 78.2094C16.7029 77.8762 16.4752 77.6062 16.1943 77.6062C15.9135 77.6062 15.6858 77.8762 15.6858 78.2094C15.6858 78.5425 15.9135 78.8125 16.1943 78.8125Z" fill="#191919"/>
<path d="M44.3428 73.0442C44.6236 73.0442 44.8513 72.7742 44.8513 72.4411C44.8513 72.1079 44.6236 71.8379 44.3428 71.8379C44.0619 71.8379 43.8342 72.1079 43.8342 72.4411C43.8342 72.7742 44.0619 73.0442 44.3428 73.0442Z" fill="#191919"/>
<path d="M102.774 59.1036H90.0108L88.0339 56.657H100.805L102.774 59.1036Z" fill="#4F4F4F"/>
<path d="M102.774 61.6949H90.0108L88.0339 59.2483H100.805L102.774 61.6949Z" fill="#2B2B2B"/>
<path d="M88.0339 56.657V59.248L90.0108 61.6947H102.774V59.1036H90.0108L88.0339 56.657Z" fill="#2B2B2B"/>
<path d="M91.9446 57.7617H90.333V58.3989H91.9446V57.7617Z" fill="#BF3A3A"/>
<path d="M91.1425 58.7134C91.5856 58.7134 91.9447 58.5726 91.9447 58.399C91.9447 58.2254 91.5856 58.0847 91.1425 58.0847C90.6995 58.0847 90.3403 58.2254 90.3403 58.399C90.3403 58.5726 90.6995 58.7134 91.1425 58.7134Z" fill="#BF3A3A"/>
<path d="M91.1425 58.0759C91.5856 58.0759 91.9447 57.9352 91.9447 57.7616C91.9447 57.588 91.5856 57.4473 91.1425 57.4473C90.6995 57.4473 90.3403 57.588 90.3403 57.7616C90.3403 57.9352 90.6995 58.0759 91.1425 58.0759Z" fill="#F25353"/>
</svg>
