<svg width="42" height="42" viewBox="0 0 42 42" fill="none" xmlns="http://www.w3.org/2000/svg">
<path d="M21 0C9.3988 0 0 9.3988 0 21C0 32.5872 9.3988 42 21 42C32.6012 42 42 32.6012 42 21C42 9.3988 32.6012 0 21 0ZM30.2445 21.1122C30.1323 21.2525 30.02 21.3928 29.9499 21.5751C29.8657 21.7856 29.8517 22.0381 29.8377 22.2766C29.7254 24.2685 29.6553 26.2605 29.4168 28.2385C29.2204 29.8517 28.9679 31.5491 28.3507 32.994C28.0561 33.6673 27.6212 34.3968 26.9619 34.495C25.6573 34.6914 24.8858 32.9238 24.479 31.6473C24.0441 30.3287 23.7916 28.9118 23.5952 27.495C23.4409 26.3587 23.3427 25.2365 22.487 24.5912C22.0381 24.2685 21.519 24.1563 21.014 24.1984C20.509 24.1563 19.99 24.2545 19.5411 24.5912C18.6713 25.2365 18.5872 26.3447 18.4329 27.495C18.2365 28.9118 17.984 30.3287 17.5491 31.6473C17.1283 32.9379 16.3567 34.6914 15.0661 34.495C14.4208 34.3968 13.9719 33.6673 13.6774 32.994C13.0601 31.5491 12.8076 29.8377 12.6112 28.2385C12.3727 26.2605 12.3026 24.2685 12.1904 22.2766C12.1764 22.0381 12.1623 21.7996 12.0782 21.5751C12.008 21.3928 11.8958 21.2525 11.7836 21.1122C10.1142 18.8537 9.91783 15.3747 10.5772 12.5271C11.1242 10.1703 12.3166 7.78557 14.3928 7.51904C15.501 7.36473 16.525 8.08016 17.5772 8.43086C18.6994 8.79559 19.8497 9.03407 21.014 9.11824C22.1784 9.03407 23.3287 8.79559 24.4509 8.43086C25.503 8.08016 26.5271 7.37876 27.6353 7.51904C29.7254 7.7996 30.9178 10.1844 31.4509 12.5271C32.1102 15.3607 31.8998 18.8537 30.2445 21.1122Z" fill="#FF6D6D"/>
<path d="M14.4209 19.6254C13.972 19.92 13.3547 19.7517 13.1163 19.2747C11.7836 16.6515 12.0361 14.2387 12.5131 12.6114C12.8076 11.6154 13.2145 10.7878 13.5511 10.2266C13.8317 9.74968 14.477 9.63745 14.9119 9.98815L15.5571 10.5072L14.8557 9.93204L14.9119 9.97412C15.2626 10.2547 15.3467 10.7597 15.1223 11.1525C14.3788 12.387 13.1163 15.2346 14.7575 18.4471C14.9539 18.8539 14.8137 19.3729 14.4209 19.6254Z" fill="#FF6D6D"/>
</svg>
