<svg width="42" height="42" viewBox="0 0 42 42" fill="none" xmlns="http://www.w3.org/2000/svg">
<path d="M21.0144 0C9.41329 0 0 9.3989 0 21C0 32.6011 9.3989 42 21 42C32.6011 42 42 32.6011 42 21C42.0144 9.3989 32.6155 0 21.0144 0ZM10.6799 8.46333L14.8684 12.4647L14.0912 13.1844L10.4064 8.70802L10.6799 8.46333ZM9.65798 17.6175C8.56408 17.5744 7.67169 16.6964 7.62851 15.6025C7.62851 15.5737 7.62851 15.5305 7.62851 15.5017C7.62851 15.1275 7.72926 14.7676 7.90198 14.4654L9.74434 10.2913L11.5867 14.4654C11.7594 14.7676 11.8602 15.1275 11.8602 15.5161C11.8458 16.6964 10.8526 17.6607 9.65798 17.6175ZM13.3715 15.0699L17.1138 11.5435L28.3118 23.4181L24.5696 26.9445L13.3715 15.0699ZM23.3749 28.8012L30.2118 22.353L31.1042 23.3029L24.2529 29.7512L23.3749 28.8012ZM28.9739 26.0233L32.5003 29.7656L30.6436 31.5216L27.1172 27.7793L28.9739 26.0233ZM33.4503 31.3777L31.8814 32.8602C31.6367 33.0905 31.3057 33.22 30.989 33.22C30.6436 33.22 30.2981 33.0761 30.0391 32.817L33.5079 29.5497C33.9972 30.0679 33.9828 30.8883 33.4503 31.3777Z" fill="#FF6D6D"/>
</svg>
