<svg width="42" height="42" viewBox="0 0 42 42" fill="none" xmlns="http://www.w3.org/2000/svg">
<path d="M21.014 0C9.41427 0 0 9.41114 0 21.007C0 32.6029 9.40026 42 21 42C32.5997 42 42 32.6029 42 21.007C42.014 9.41114 32.6137 0 21.014 0ZM4.21681 28.4015C3.85257 27.5892 3.55837 26.7349 3.32021 25.8666C3.39026 25.7966 3.4463 25.7406 3.51634 25.6706C5.08539 24.13 7.10273 23.2337 9.48432 23.0097C11.4736 22.8276 13.3369 22.5755 15.1721 22.2394C15.4243 22.1974 15.7045 22.1414 15.9566 22.0994C17.2315 21.8893 18.5484 21.6652 19.501 21.119C20.1734 20.7269 20.972 19.3825 21.056 17.996C21.1121 17.1837 20.944 16.0353 19.8652 15.1951C15.7045 11.988 16.6151 5.65789 17.2175 3.03901C18.03 2.87096 18.8706 2.74492 19.7111 2.6889C19.4309 3.66922 17.6378 10.5315 21.2942 13.3464C22.7792 14.4948 23.5217 16.1894 23.3956 18.1501C23.2555 20.2087 22.1207 22.3094 20.6778 23.1357C19.3609 23.892 17.7638 24.1581 16.3489 24.3961C16.0827 24.4381 15.8305 24.4802 15.5924 24.5222C13.6871 24.8723 11.7678 25.1244 9.70847 25.3204C7.84523 25.4885 6.36024 26.1467 5.16944 27.3231C4.81921 27.6592 4.51101 28.0093 4.21681 28.4015ZM24.2502 22.0013H32.8099C32.8099 22.0013 33.3422 25.3765 26.7298 30.3341C21.4203 34.3254 15.1161 30.6842 12.4823 28.4295C11.7818 27.8413 12.048 26.7489 12.9586 26.7209C22.541 26.4828 24.2502 22.0013 24.2502 22.0013ZM31.507 32.3228C29.2095 34.2554 26.4916 35.5298 23.6197 36.02C22.7652 36.1601 21.8966 36.2441 21.028 36.2441C18.6744 36.2441 16.3209 35.6979 14.1214 34.6476C13.1548 34.1854 12.2722 33.6532 11.4877 33.051C11.2075 32.8409 10.9413 32.6029 10.6891 32.3788C10.0867 31.8466 9.51234 31.3424 8.96597 31.2724C8.2515 31.1744 7.48098 31.5385 6.61241 32.3648C6.12208 31.7486 5.67378 31.1044 5.26751 30.4181C6.36024 29.4518 7.69112 28.7376 9.26017 28.9477C10.521 29.1157 11.4596 29.942 12.2161 30.6142C12.4543 30.8243 12.6784 31.0203 12.8886 31.1744C13.547 31.6786 14.2895 32.1267 15.1161 32.5188C17.6938 33.7513 20.4957 34.1714 23.2135 33.7092C25.6791 33.2891 28.0187 32.1967 29.994 30.5302C31.8712 28.9477 33.2301 27.029 33.9166 24.9843C35.2615 20.951 35.0233 17.1277 33.2722 14.7329C32.1374 13.1784 30.4423 12.3661 28.3829 12.3941C26.0854 12.4221 24.3902 11.6799 23.3396 10.2094C22.4009 8.87896 22.0647 7.05835 22.3589 4.77559C22.457 3.97733 22.6251 3.27709 22.7512 2.75892C23.5357 2.82894 24.3062 2.95499 25.0627 3.13705C24.6564 4.55152 24.1521 7.35245 25.2308 8.87896C25.8192 9.70524 26.8279 10.0974 28.3409 10.0694C31.1568 10.0413 33.5664 11.2177 35.1354 13.3745C37.3209 16.3715 37.6851 20.993 36.1021 25.7406C35.3175 28.1774 33.7205 30.4602 31.507 32.3228Z" fill="#FF6D6D"/>
</svg>
