<svg width="42" height="42" viewBox="0 0 42 42" fill="none" xmlns="http://www.w3.org/2000/svg">
<path d="M20.958 0C9.38 0 0 9.38 0 20.958C0 32.522 9.38 41.916 20.958 41.916C32.536 41.916 41.916 32.536 41.916 20.958C41.916 9.38 32.536 0 20.958 0ZM32.732 9.184C33.222 9.66 32.186 11.48 31.262 12.39C30.338 13.314 28.574 14.294 28.098 13.818C27.622 13.328 28.602 11.564 29.526 10.654C30.436 9.73 32.242 8.708 32.732 9.184ZM26.082 9.8C26.502 8.792 27.58 7.406 28.112 7.63C28.644 7.854 28.42 9.59 28 10.612C27.58 11.62 26.516 12.964 25.984 12.74C25.466 12.516 25.662 10.822 26.082 9.8ZM27.034 20.804L23.968 23.1L21.826 20.958C21.672 20.804 21.476 20.734 21.28 20.734C21.084 20.734 20.888 20.804 20.734 20.958C20.44 21.252 20.44 21.742 20.734 22.036L22.722 24.024L20.37 25.788L18.676 24.094C18.522 23.94 18.326 23.87 18.13 23.87C17.934 23.87 17.738 23.94 17.584 24.094C17.29 24.388 17.29 24.878 17.584 25.172L19.124 26.712L16.772 28.476L15.526 27.244C15.372 27.09 15.176 27.02 14.98 27.02C14.784 27.02 14.588 27.09 14.434 27.244C14.14 27.538 14.14 28.028 14.434 28.322L15.526 29.414L9.282 34.09C8.302 34.818 7.084 33.586 7.812 32.62L21.098 14.882C21.224 14.714 21.35 14.56 21.49 14.42C22.47 13.44 23.898 12.992 25.284 13.258C26.138 13.426 26.894 13.832 27.482 14.42C28.07 15.008 28.476 15.764 28.644 16.618C28.966 18.2 28.336 19.838 27.034 20.804ZM32.116 15.834C31.108 16.254 29.4 16.45 29.19 15.918C28.966 15.386 30.31 14.322 31.318 13.902C32.326 13.482 34.076 13.258 34.3 13.79C34.51 14.336 33.124 15.414 32.116 15.834Z" fill="#FF6D6D"/>
</svg>
