<svg width="139" height="139" viewBox="0 0 139 139" fill="none" xmlns="http://www.w3.org/2000/svg">
<g clip-path="url(#clip0)">
<path d="M102.582 78.6184L85.6241 59.4364L83.5113 56.9344L81.2873 54.5714L83.5113 52.0694L85.6241 49.7064L103.221 29.7182C105.974 26.4378 107.697 22.3512 107.697 18.0144C107.697 8.17324 99.5519 0.139038 89.8219 0.139038C79.8417 0.139038 71.8074 8.14544 71.8074 18.0144V46.426C71.8074 48.2608 70.3619 49.7064 68.6661 49.7064C66.9703 49.7064 65.5247 48.2608 65.5247 46.426V18.0422C65.5247 8.20104 57.3793 0.166838 47.5103 0.166838C37.6691 0.166838 29.6349 8.17324 29.6349 18.0422C29.6349 22.379 31.2195 26.4656 34.1107 29.746L35.8065 31.7198L51.7081 49.7342L53.8209 52.0972L55.9337 54.5992L53.8209 56.9622L51.7081 59.4642L34.7501 78.6462L34.0829 79.3134C31.1917 82.5938 29.6071 86.7916 29.6071 91.1284C29.6071 100.997 37.6135 109.004 47.4825 109.004C56.2117 109.004 63.6899 102.638 65.1911 94.2976C65.5247 92.4628 64.7741 90.6002 63.5509 89.2102L57.6017 82.4548C56.6843 81.3984 56.1561 80.0918 56.0171 78.6462C56.0171 78.5072 56.0171 78.5072 56.0171 78.396C56.0171 74.9766 58.9083 72.0854 62.3277 72.0854H62.8559C66.1363 72.3356 68.6383 75.1156 68.6383 78.396C68.6383 75.1156 71.1403 72.3634 74.4207 72.0854H74.9489C78.3683 72.0854 81.2594 74.9766 81.2594 78.396C81.2594 78.535 81.2594 78.535 81.2594 78.6462C81.1204 80.0918 80.5923 81.3984 79.6749 82.4548L73.7534 89.1824C72.5024 90.6002 71.7519 92.4906 72.0854 94.3254C73.6144 102.638 80.9537 108.976 89.7941 108.976C99.5241 108.976 107.669 100.97 107.669 91.1006C107.669 86.7638 105.974 82.566 103.194 79.2856L102.582 78.6184ZM63.1617 66.8868C61.6327 66.8868 60.3817 65.6358 60.3817 64.1068C60.3817 62.5778 61.6327 61.3268 63.1617 61.3268C64.6907 61.3268 65.9417 62.5778 65.9417 64.1068C65.9417 65.6358 64.6907 66.8868 63.1617 66.8868ZM74.1983 66.8868C72.6693 66.8868 71.4183 65.6358 71.4183 64.1068C71.4183 62.5778 72.6693 61.3268 74.1983 61.3268C75.7273 61.3268 76.9783 62.5778 76.9783 64.1068C76.9783 65.6358 75.7273 66.8868 74.1983 66.8868Z" fill="white"/>
<path d="M29.5514 128.353C29.5514 129.298 29.4402 130.16 29.19 130.938C28.9676 131.716 28.6062 132.384 28.1614 132.94C27.7166 133.496 27.1606 133.94 26.4656 134.246C25.7984 134.552 25.02 134.719 24.1582 134.719C23.6856 134.719 23.213 134.663 22.796 134.58C22.379 134.496 21.962 134.357 21.5728 134.191V138.805H18.1256V122.598C18.4314 122.515 18.7928 122.403 19.2098 122.32C19.6268 122.237 20.0438 122.153 20.4886 122.098C20.9334 122.042 21.3782 121.986 21.8508 121.959C22.3234 121.931 22.7404 121.903 23.1574 121.903C24.1582 121.903 25.0756 122.042 25.8818 122.348C26.688 122.654 27.3552 123.071 27.8834 123.627C28.4394 124.183 28.8564 124.85 29.1344 125.656C29.4124 126.49 29.5514 127.38 29.5514 128.353ZM25.993 128.436C25.993 127.352 25.7428 126.49 25.2702 125.851C24.7976 125.211 24.0748 124.878 23.1296 124.878C22.8238 124.878 22.518 124.878 22.2678 124.905C21.9898 124.933 21.7952 124.961 21.6006 124.989V131.272C21.823 131.411 22.101 131.522 22.4624 131.633C22.8238 131.716 23.1574 131.772 23.5188 131.772C25.1868 131.8 25.993 130.688 25.993 128.436Z" fill="white"/>
<path d="M31.6642 128.436C31.6642 127.352 31.831 126.379 32.1646 125.573C32.4982 124.766 32.943 124.071 33.4712 123.515C34.0272 122.959 34.6388 122.57 35.3616 122.264C36.0566 121.986 36.8072 121.847 37.5578 121.847C39.3092 121.847 40.6714 122.376 41.7 123.46C42.7008 124.516 43.229 126.101 43.229 128.158C43.229 128.353 43.229 128.575 43.2012 128.825C43.1734 129.075 43.1734 129.27 43.1456 129.465H35.2504C35.3338 130.187 35.6674 130.743 36.2512 131.16C36.835 131.577 37.6412 131.8 38.642 131.8C39.2814 131.8 39.9208 131.744 40.5324 131.633C41.144 131.522 41.6444 131.383 42.0336 131.188L42.5062 134.024C42.3116 134.107 42.0614 134.218 41.7556 134.302C41.4498 134.385 41.0884 134.469 40.727 134.552C40.3378 134.635 39.9486 134.691 39.5038 134.719C39.059 134.774 38.642 134.802 38.1972 134.802C37.0852 134.802 36.14 134.635 35.306 134.302C34.472 133.968 33.8048 133.523 33.2766 132.967C32.7484 132.411 32.3314 131.716 32.0812 130.938C31.7754 130.187 31.6642 129.353 31.6642 128.436ZM39.8374 127.129C39.8096 126.824 39.7818 126.546 39.6984 126.268C39.615 125.99 39.476 125.739 39.3092 125.517C39.1424 125.295 38.8922 125.128 38.642 124.989C38.364 124.85 38.0304 124.766 37.6134 124.766C37.2242 124.766 36.8906 124.822 36.6126 124.961C36.3346 125.1 36.1122 125.267 35.9176 125.489C35.723 125.712 35.584 125.962 35.4728 126.24C35.3616 126.518 35.306 126.824 35.2504 127.129H39.8374Z" fill="white"/>
<path d="M45.7589 119.151L49.2338 118.595V122.209H53.4038V125.1H49.2338V129.437C49.2338 130.16 49.3728 130.743 49.623 131.188C49.8732 131.633 50.4014 131.855 51.1798 131.855C51.5412 131.855 51.9304 131.828 52.3474 131.744C52.7366 131.661 53.098 131.577 53.4316 131.438L53.932 134.163C53.515 134.33 53.0424 134.469 52.542 134.608C52.0416 134.719 51.4022 134.802 50.6516 134.802C49.7064 134.802 48.928 134.663 48.2886 134.413C47.677 134.163 47.1766 133.801 46.7874 133.329C46.426 132.856 46.148 132.3 46.009 131.661C45.87 130.994 45.7866 130.271 45.7866 129.492V119.151H45.7589Z" fill="white"/>
<path d="M56.4062 134.496L60.6874 116.732L62.967 116.371L61.4658 122.515C61.8272 122.403 62.1886 122.292 62.6056 122.209C62.9948 122.125 63.4118 122.098 63.801 122.098C64.496 122.098 65.1076 122.209 65.608 122.403C66.1084 122.598 66.5254 122.876 66.8312 123.21C67.137 123.543 67.3594 123.96 67.5262 124.433C67.6652 124.905 67.7486 125.434 67.7486 125.99C67.7486 126.685 67.6374 127.463 67.415 128.325L65.9138 134.552H63.7454L65.1354 128.797C65.2466 128.353 65.3578 127.908 65.4412 127.463C65.5524 127.018 65.5802 126.573 65.5802 126.184C65.5802 125.573 65.4134 125.044 65.0798 124.627C64.7462 124.21 64.1068 124.016 63.1616 124.016C62.8002 124.016 62.411 124.044 61.994 124.127C61.6048 124.21 61.2712 124.294 60.9932 124.433L58.5746 134.58H56.4062V134.496Z" fill="white"/>
<path d="M74.504 134.802C73.6978 134.802 73.0307 134.691 72.4469 134.469C71.8631 134.246 71.3904 133.94 71.0012 133.523C70.612 133.134 70.3341 132.662 70.1395 132.133C69.9449 131.605 69.8615 131.049 69.8615 130.438C69.8615 129.353 70.0283 128.297 70.3619 127.296C70.6955 126.295 71.1681 125.378 71.7519 124.6C72.3635 123.821 73.0863 123.21 73.9759 122.737C74.8377 122.264 75.8384 122.042 76.9504 122.042C77.5898 122.042 78.1459 122.125 78.5907 122.292C79.0633 122.459 79.4247 122.681 79.7027 122.959C79.9807 123.237 80.203 123.571 80.342 123.932C80.481 124.294 80.5644 124.683 80.5644 125.072C80.5644 125.795 80.4254 126.434 80.1752 126.935C79.8972 127.435 79.5637 127.852 79.1189 128.214C78.6741 128.547 78.1737 128.825 77.5899 129.02C77.0061 129.214 76.3944 129.353 75.755 129.465C75.1156 129.576 74.4763 129.659 73.8369 129.687C73.1975 129.715 72.5858 129.77 72.002 129.798C71.9742 129.909 71.9742 130.021 71.9742 130.104C71.9742 130.187 71.9742 130.243 71.9742 130.299C71.9742 130.66 72.0298 130.994 72.1132 131.327C72.1966 131.633 72.3635 131.939 72.5859 132.161C72.8083 132.411 73.1419 132.606 73.5589 132.745C73.9759 132.884 74.504 132.967 75.1712 132.967C75.477 132.967 75.7829 132.94 76.0887 132.884C76.3945 132.828 76.7002 132.773 77.006 132.662C77.284 132.578 77.562 132.495 77.7844 132.411C78.0068 132.328 78.1736 132.245 78.257 132.161L78.4517 133.996C78.1459 134.163 77.6454 134.357 76.9504 134.552C76.2554 134.719 75.4492 134.802 74.504 134.802ZM72.28 128.13C73.1696 128.102 74.0036 128.047 74.7542 127.963C75.5048 127.88 76.1442 127.741 76.7002 127.519C77.2562 127.296 77.6732 127.018 77.979 126.657C78.2849 126.295 78.4239 125.823 78.4239 125.267C78.4239 125.128 78.396 124.989 78.3404 124.822C78.2848 124.655 78.2014 124.516 78.0624 124.377C77.9234 124.238 77.7566 124.127 77.5064 124.044C77.284 123.96 76.9783 123.905 76.6447 123.905C76.0887 123.905 75.5883 124.016 75.1157 124.266C74.6431 124.488 74.2261 124.794 73.8369 125.183C73.4755 125.573 73.1419 126.017 72.8917 126.518C72.6415 127.018 72.419 127.574 72.28 128.13Z" fill="white"/>
<path d="M89.7106 134.635C89.6272 134.469 89.5438 134.274 89.4882 134.052C89.4048 133.829 89.3492 133.607 89.2936 133.384C88.96 133.69 88.4874 133.996 87.9036 134.33C87.3198 134.635 86.6248 134.802 85.7908 134.802C85.0958 134.802 84.512 134.691 84.0394 134.469C83.539 134.246 83.1498 133.94 82.844 133.551C82.5382 133.162 82.3158 132.689 82.149 132.161C82.01 131.633 81.9266 131.049 81.9266 130.41C81.9266 129.353 82.0934 128.353 82.4548 127.352C82.8162 126.351 83.3444 125.461 84.0394 124.683C84.7344 123.905 85.624 123.265 86.6804 122.793C87.7368 122.32 88.9878 122.07 90.4056 122.07C90.8226 122.07 91.323 122.125 91.879 122.209C92.435 122.292 92.9354 122.459 93.3246 122.681L91.5176 130.021C91.4342 130.382 91.3786 130.716 91.323 131.049C91.2674 131.383 91.2396 131.716 91.2396 132.078C91.2396 132.439 91.2674 132.801 91.323 133.162C91.3786 133.523 91.4898 133.913 91.6566 134.33L89.7106 134.635ZM86.2356 132.967C86.9028 132.967 87.4588 132.828 87.9314 132.55C88.404 132.272 88.7932 131.939 89.1546 131.577C89.1824 131.299 89.2102 131.049 89.238 130.743C89.2658 130.465 89.3214 130.16 89.377 129.854L90.767 124.071C90.6836 124.044 90.5724 124.016 90.3778 123.988C90.211 123.96 90.0442 123.96 89.9052 123.96C89.0156 123.96 88.2094 124.127 87.4866 124.461C86.7638 124.794 86.1522 125.267 85.6518 125.823C85.1514 126.379 84.7622 127.046 84.4842 127.797C84.2062 128.547 84.0672 129.353 84.0672 130.16C84.0672 130.493 84.095 130.827 84.1506 131.16C84.2062 131.494 84.3174 131.8 84.4842 132.05C84.651 132.3 84.8734 132.523 85.1514 132.689C85.4572 132.884 85.8186 132.967 86.2356 132.967Z" fill="white"/>
<path d="M97.3556 129.159C97.2722 129.492 97.1888 129.826 97.1332 130.16C97.0498 130.493 97.022 130.799 97.022 131.105C97.022 131.633 97.161 132.05 97.4112 132.356C97.6614 132.662 98.134 132.856 98.8568 132.94L98.3564 134.719C97.717 134.691 97.1888 134.608 96.744 134.413C96.2992 134.246 95.9378 133.996 95.6598 133.69C95.3818 133.384 95.1872 133.051 95.076 132.634C94.9648 132.217 94.8814 131.772 94.8814 131.299C94.8814 130.938 94.9092 130.577 94.9648 130.187C95.0204 129.798 95.1038 129.381 95.215 128.964L98.1618 116.732L100.441 116.371L97.3556 129.159Z" fill="white"/>
<path d="M104.611 134.83C103.444 134.83 102.582 134.58 102.054 134.052C101.498 133.551 101.248 132.801 101.248 131.8C101.248 131.16 101.359 130.354 101.581 129.353L104.083 118.956L106.363 118.595L105.445 122.348H109.532L109.087 124.183H104.945L103.666 129.548C103.472 130.271 103.388 130.91 103.388 131.466C103.388 131.967 103.527 132.356 103.805 132.578C104.083 132.801 104.556 132.912 105.195 132.912C105.64 132.912 106.085 132.828 106.53 132.689C106.974 132.55 107.308 132.411 107.53 132.272L107.697 134.107C107.475 134.246 107.058 134.413 106.502 134.552C105.974 134.747 105.334 134.83 104.611 134.83Z" fill="white"/>
<path d="M109.532 134.496L113.813 116.732L116.093 116.371L114.592 122.515C114.953 122.403 115.314 122.292 115.731 122.209C116.121 122.125 116.538 122.098 116.927 122.098C117.622 122.098 118.233 122.209 118.734 122.403C119.234 122.598 119.651 122.876 119.957 123.21C120.263 123.543 120.485 123.96 120.652 124.433C120.791 124.905 120.874 125.434 120.874 125.99C120.874 126.685 120.763 127.463 120.541 128.325L119.04 134.552H116.871L118.261 128.797C118.372 128.353 118.484 127.908 118.567 127.463C118.678 127.018 118.706 126.573 118.706 126.184C118.706 125.573 118.539 125.044 118.206 124.627C117.872 124.21 117.233 124.016 116.287 124.016C115.926 124.016 115.537 124.044 115.12 124.127C114.731 124.21 114.397 124.294 114.119 124.433L111.7 134.58H109.532V134.496Z" fill="white"/>
</g>
<defs>
<clipPath id="clip0">
<rect width="139" height="139" fill="white"/>
</clipPath>
</defs>
</svg>
