<?xml version="1.0" encoding="utf-8"?>
<!-- Generator: Adobe Illustrator 22.0.1, SVG Export Plug-In . SVG Version: 6.00 Build 0)  -->
<svg version="1.1" id="Layer_1" xmlns="http://www.w3.org/2000/svg" xmlns:xlink="http://www.w3.org/1999/xlink" x="0px" y="0px"
	 viewBox="0 0 500 500" style="enable-background:new 0 0 500 500;" xml:space="preserve">
<style type="text/css">
	.st0{enable-background:new    ;}
	.st1{fill:#FFFFFF;}
</style>
<g>
	<g class="st0">
		<path class="st1" d="M106.3,384.4c2.7,1.5,4.9,3.7,6.4,6.5c1.6,2.8,2.3,6,2.3,9.7s-0.8,6.9-2.3,9.7c-1.6,2.8-3.7,4.9-6.4,6.5
			c-2.7,1.5-5.8,2.3-9.1,2.3c-4.6,0-8.2-1.4-10.8-4.3v16.8H75.9v-48.9h10v4.1c2.6-3.1,6.3-4.7,11.3-4.7
			C100.5,382.1,103.5,382.9,106.3,384.4z M101.9,407.9c1.7-1.8,2.6-4.2,2.6-7.2s-0.9-5.4-2.6-7.2c-1.7-1.8-3.9-2.7-6.6-2.7
			s-4.9,0.9-6.6,2.7c-1.7,1.8-2.6,4.2-2.6,7.2s0.9,5.4,2.6,7.2c1.7,1.8,3.9,2.7,6.6,2.7S100.2,409.7,101.9,407.9z"/>
		<path class="st1" d="M157,403.5h-27.2c0.5,2.2,1.6,4,3.5,5.3c1.8,1.3,4.1,1.9,6.8,1.9c1.9,0,3.5-0.3,5-0.8c1.4-0.6,2.8-1.4,4-2.6
			l5.5,6c-3.4,3.9-8.3,5.8-14.8,5.8c-4.1,0-7.6-0.8-10.8-2.4c-3.1-1.6-5.5-3.8-7.2-6.6c-1.7-2.8-2.5-6-2.5-9.6
			c0-3.5,0.8-6.7,2.5-9.5s4-5,6.9-6.6s6.2-2.4,9.8-2.4c3.5,0,6.7,0.8,9.6,2.3c2.8,1.5,5.1,3.7,6.7,6.5c1.6,2.8,2.4,6.1,2.4,9.9
			C157.2,400.9,157.1,401.8,157,403.5z M132.6,392c-1.6,1.3-2.6,3.2-2.9,5.5h17.7c-0.4-2.3-1.3-4.1-2.9-5.4c-1.6-1.4-3.6-2-5.9-2
			C136.2,390,134.2,390.7,132.6,392z"/>
		<path class="st1" d="M187.3,416.8c-1,0.8-2.3,1.3-3.8,1.7c-1.5,0.4-3.1,0.6-4.7,0.6c-4.3,0-7.6-1.1-9.9-3.3
			c-2.3-2.2-3.5-5.4-3.5-9.6v-14.8h-5.5v-8h5.5v-8.8h10.4v8.8h9v8h-9V406c0,1.5,0.4,2.7,1.2,3.5s1.9,1.2,3.3,1.2
			c1.6,0,3.1-0.4,4.2-1.3L187.3,416.8z"/>
	</g>
	<g class="st0">
		<path class="st1" d="M222.9,387.2c2.5,2.5,3.8,6.2,3.8,11v20.4h-3.3v-20.1c0-3.9-1-6.9-3-9c-2-2-4.8-3.1-8.3-3.1
			c-4.1,0-7.3,1.2-9.7,3.7s-3.5,5.7-3.5,9.9v18.6h-3.3V369h3.3v22c1.2-2.4,3-4.3,5.3-5.6c2.4-1.3,5.1-2,8.4-2
			C216.9,383.4,220.3,384.7,222.9,387.2z"/>
		<path class="st1" d="M270,401.9h-30c0.1,2.7,0.8,5.1,2.1,7.2s3,3.8,5.2,4.9s4.7,1.7,7.4,1.7c2.3,0,4.4-0.4,6.3-1.2s3.6-2,4.8-3.6
			l1.9,2.2c-1.5,1.8-3.4,3.2-5.7,4.2s-4.8,1.5-7.4,1.5c-3.5,0-6.6-0.8-9.3-2.3s-4.8-3.6-6.4-6.3c-1.5-2.7-2.3-5.7-2.3-9.2
			c0-3.4,0.7-6.4,2.2-9.1c1.4-2.7,3.4-4.8,6-6.3c2.5-1.5,5.4-2.3,8.6-2.3c3.2,0,6,0.7,8.5,2.2s4.5,3.6,5.9,6.2
			c1.4,2.7,2.2,5.7,2.2,9.1L270,401.9z M246.8,388c-2,1.1-3.5,2.6-4.7,4.6s-1.9,4.2-2,6.7h26.7c-0.1-2.5-0.8-4.7-2-6.7
			s-2.8-3.5-4.7-4.6s-4.2-1.7-6.6-1.7C250.9,386.4,248.7,386.9,246.8,388z"/>
		<path class="st1" d="M301.1,386.7c2.3,2.2,3.5,5.4,3.5,9.7v22.1h-3.2v-6.2c-1.1,2-2.7,3.6-4.9,4.8s-4.7,1.7-7.7,1.7
			c-3.9,0-6.9-0.9-9.2-2.7c-2.3-1.8-3.4-4.2-3.4-7.2c0-2.9,1-5.2,3.1-7s5.4-2.7,9.9-2.7h12v-2.8c0-3.3-0.9-5.7-2.6-7.4
			c-1.8-1.7-4.3-2.5-7.7-2.5c-2.3,0-4.5,0.4-6.6,1.2c-2.1,0.8-3.9,1.9-5.4,3.2l-1.7-2.4c1.7-1.6,3.8-2.8,6.3-3.6
			c2.4-0.9,5-1.3,7.7-1.3C295.5,383.4,298.8,384.5,301.1,386.7z M296.7,414.1c2-1.3,3.6-3.3,4.6-5.8v-6.5h-11.9
			c-3.4,0-5.9,0.6-7.4,1.9c-1.5,1.2-2.3,3-2.3,5.1c0,2.3,0.8,4.1,2.5,5.4s4.1,2,7.1,2C292.2,416.1,294.6,415.4,296.7,414.1z"/>
		<path class="st1" d="M318.3,369h3.3v49.6h-3.3V369z"/>
		<path class="st1" d="M352.6,416.4c-0.8,0.8-1.9,1.4-3.2,1.8c-1.3,0.4-2.6,0.6-4,0.6c-3,0-5.4-0.8-7-2.5s-2.5-4-2.5-7v-22.8h-6.4
			v-2.9h6.4V376h3.3v7.6h11.1v2.9h-11.1V409c0,2.3,0.5,4,1.6,5.2s2.7,1.8,4.8,1.8c2.2,0,4-0.6,5.4-1.9L352.6,416.4z"/>
		<path class="st1" d="M389.3,387.2c2.5,2.5,3.8,6.2,3.8,11v20.4h-3.3v-20.1c0-3.9-1-6.9-3-9c-2-2-4.8-3.1-8.3-3.1
			c-4.1,0-7.3,1.2-9.7,3.7c-2.4,2.5-3.5,5.7-3.5,9.9v18.6H362V369h3.3v22c1.2-2.4,3-4.3,5.3-5.6s5.1-2,8.4-2
			C383.3,383.4,386.7,384.7,389.3,387.2z"/>
	</g>
</g>
<g>
	<path class="st1" d="M432.9,161.4c-0.2-3-2.6-5.4-5.6-5.4h-59.1L365,67.3c-0.1-1.7-0.8-3.3-2-4.4s-2.9-1.7-4.6-1.7
		c-23.8,1.1-32.5,43.5-34.9,59H288c-3.1-28.9-28.7-52.2-34.1-56.8c-1.8-1.6-4.4-1.9-6.6-1c-2.2,1-3.7,3.1-3.8,5.5l-12.2,242.5v0.3
		c0,20.5-16.7,37.2-37.2,37.2c-15.9,0-29.9-10.1-35-24.7c0-0.1,0.1-0.1,0.1-0.2l10.9-18.8c3.5-6.1-0.9-13.7-7.9-13.7h-21.8
		c-7,0-11.4,7.6-7.9,13.7l10.9,18.8l0.1,0.1c-5.1,14.4-18.9,24.7-35,24.7c-0.5,0-1,0-1.5,0c-10.5-0.4-20-5.6-26.2-14.2
		c-8.2-11.5-8.5-27.4-0.6-39.7l39.2-53.1c1-1.5,2.6-2.4,4.4-2.4h66.7v-5.6c0-17.9,15-28.2,24.4-33v38.5H226v-45.9
		c0-2.8-1.9-5.4-4.8-6.2c-1.3-0.3-2.7-0.2-3.9,0.3c-6.3,2.3-34.3,14.1-37.8,40.8h-3.4v-34.8c0-2.1-1-4-2.7-5.2s-3.9-1.5-5.8-0.8
		c-6,2.2-34.4,13.9-38,40.8h-12.1c-1.8,0-3.4,0.9-4.4,2.4L70.6,288c-10.4,16.1-10,37.2,0.9,52.3c8.2,11.4,20.9,18.3,34.9,18.9
		c0.7,0,1.3,0,2,0c18.5,0,34.7-10.5,42.8-25.8c8.2,15.5,24.5,25.8,42.8,25.8c26.7,0,48.4-21.7,48.5-48.3l11.7-231.6
		c9.3,9.7,22.8,27.2,22.8,46.6v5.6h56.5l0.6-5c1.8-15.2,8.7-44.8,19.9-52.2l2.9,81.8h-22.1c0-0.6,0.1-1.2,0.1-1.8
		c0-9-3.8-16.2-8.4-16.2c-4.7,0-8.4,7.3-8.4,16.2c0,0.6,0,1.2,0.1,1.8h-15.9v11.3h86.9c-0.4,2.6-0.7,5.4-0.7,8.2
		c0,17.6,9.2,32.3,21.5,36.1c-9.6,15.7-24.5,23.7-44.5,23.7c-60.6,0-73.9-28.9-74.4-30.1l-10.4,4.3c0.6,1.5,15.3,35.2,79.7,37
		l3.2,35.3l0,0l0,0l0,0c-11.1-16.6-26.1-25.8-42.1-25.8c-16.2,0-31.2,9.3-42.4,26.1c-10.7,16.1-16.5,37.4-16.5,60h11.3
		c0-41.3,21.4-74.8,47.6-74.8c21.6,0,39.9,22.7,45.7,53.7c1.3,6.7,1.9,13.8,1.9,21.1h5.6h5.6l-2-22.7l0,0l-6.6-73.1
		c21.8-1.7,38.7-12.3,49.2-31C434.3,191.4,433,162.7,432.9,161.4z M164.8,199.9v27.4H141C143.7,212.8,156.5,204.1,164.8,199.9z"/>
	<ellipse class="st1" cx="285.5" cy="154.3" rx="8.4" ry="16.2"/>
	<ellipse class="st1" cx="182.8" cy="276.3" rx="10.5" ry="16.7"/>
	<ellipse class="st1" cx="119.6" cy="276.3" rx="10.5" ry="16.7"/>
	<ellipse class="st1" cx="340" cy="190" rx="5.1" ry="5.1"/>
	<ellipse class="st1" cx="350.6" cy="208.4" rx="5.1" ry="5.1"/>
	<ellipse class="st1" cx="361.3" cy="190" rx="5.1" ry="5.1"/>
</g>
</svg>
