<svg width="38" height="38" viewBox="0 0 38 38" fill="none" xmlns="http://www.w3.org/2000/svg">
<g filter="url(#filter0_i)">
<path d="M14.3514 13.0593C11.4 14.022 9.71535 18.4427 9.71535 18.4427C9.71535 18.4427 7.94202 7.15668 9.61402 7.39735C11.6534 7.68868 14.3514 13.0593 14.3514 13.0593Z" fill="#FF4848"/>
<path d="M17.6193 22.8505C17.6193 22.8505 17.1 21.7485 16.492 21.2165C16.2513 21.7485 15.7067 22.1285 15.086 22.1285C14.2373 22.1285 13.5406 21.4318 13.5406 20.5832C13.5406 19.7345 14.2373 19.0378 15.086 19.0378C15.542 19.0378 15.96 19.2405 16.2387 19.5572C16.2387 19.5572 17.3153 20.4945 17.6193 22.8505Z" fill="#FF4848"/>
<path d="M21.2293 28.3607C21.1787 28.3733 19.684 28.9053 19.0633 27.702C18.4427 28.9053 16.9353 28.3733 16.8973 28.3607C18.5187 28.69 18.7593 27.4993 18.7847 27.0307C18.1893 26.6507 16.8847 25.7387 17.2267 25.1433C17.67 24.3707 19.0633 24.852 19.0633 24.852C19.0633 24.852 20.4567 24.3707 20.9 25.1433C21.242 25.7513 19.9373 26.6633 19.342 27.0307C19.3673 27.4993 19.608 28.6773 21.2293 28.3607Z" fill="#FF4848"/>
<path d="M24.6493 20.5961C24.6493 21.4447 23.9527 22.1414 23.104 22.1414C22.4707 22.1414 21.9387 21.7614 21.698 21.2294C21.09 21.7614 20.5707 22.8634 20.5707 22.8634C20.862 20.5074 21.9513 19.5827 21.9513 19.5827C22.23 19.2661 22.648 19.0634 23.104 19.0634C23.9527 19.0507 24.6493 19.7347 24.6493 20.5961Z" fill="#FF4848"/>
<path d="M28.4113 18.4427C28.4113 18.4427 26.7267 14.022 23.7753 13.0593C23.7753 13.0593 26.4733 7.68868 28.5253 7.39735C30.1847 7.15668 28.4113 18.4427 28.4113 18.4427Z" fill="#FF4848"/>
<path d="M19.0633 0.392578C8.81601 0.392578 0.519348 8.68924 0.519348 18.9366C0.519348 29.1839 8.81601 37.4932 19.0633 37.4932C29.3107 37.4932 37.62 29.1839 37.62 18.9366C37.62 8.68924 29.3107 0.392578 19.0633 0.392578ZM30.1214 10.8806C30.0707 12.7679 29.754 14.6552 29.3487 16.5046C29.0194 17.9992 28.6267 19.4939 28.196 20.9632C27.8287 22.2172 27.474 23.5472 26.7014 24.6492C26.4227 25.0546 26.0807 25.4219 25.726 25.7766C26.8914 25.7892 27.9427 26.0679 28.8547 26.5746C28.918 26.6126 28.9433 26.6886 28.9053 26.7646C28.8673 26.8279 28.7914 26.8532 28.728 26.8152C27.7654 26.2706 26.6633 26.0172 25.4473 26.0552C25.1053 26.3719 24.7507 26.6632 24.396 26.9546C24.89 27.1192 25.5487 27.3726 26.258 27.7526C27.55 28.4239 29.2474 29.6146 30.096 31.4766C30.1214 31.5399 30.096 31.6286 30.0327 31.6539C29.9694 31.6792 29.8934 31.6539 29.8554 31.5906C29.0447 29.8046 27.398 28.6519 26.144 27.9932C25.3587 27.5879 24.6367 27.3092 24.1427 27.1572C24.016 27.2586 23.8894 27.3599 23.7627 27.4486C24.51 27.8919 25.5867 28.6899 26.144 29.8299C26.182 29.8932 26.144 29.9819 26.0807 30.0072C26.068 30.0199 26.0427 30.0199 26.03 30.0199C25.9793 30.0199 25.9287 29.9946 25.916 29.9439C25.3587 28.8166 24.2567 28.0439 23.5347 27.6132C23.4333 27.6892 23.3447 27.7526 23.2433 27.8286C23.2433 27.8286 23.2307 27.8286 23.2307 27.8412C23.5473 28.1579 23.9147 28.6012 24.092 29.1839C24.1047 29.2346 24.0793 29.2979 24.0287 29.3106L23.9653 29.3232C23.9147 29.3359 23.864 29.3106 23.8387 29.2599C23.6614 28.7152 23.3193 28.2972 23.0153 28.0059C22.6227 28.2972 22.23 28.5632 21.812 28.8039C21.3687 29.0699 20.9 29.3106 20.3933 29.4499C19.9627 29.5766 19.5067 29.6399 19.0507 29.6272C18.4553 29.6272 17.86 29.5132 17.3027 29.2979C17.1 29.2219 16.8974 29.1206 16.6947 29.0192C16.2387 28.7786 15.7954 28.4999 15.3773 28.2086C15.2887 28.1452 15.2 28.0819 15.0987 28.0059C14.7947 28.2972 14.44 28.7152 14.2753 29.2599C14.2627 29.3106 14.1993 29.3359 14.1487 29.3232L14.0853 29.3106C14.0347 29.2979 13.9967 29.2346 14.022 29.1839C14.1993 28.6139 14.5667 28.1579 14.8833 27.8412C14.782 27.7652 14.6933 27.6892 14.592 27.6132C13.87 28.0312 12.768 28.8166 12.2107 29.9439C12.1853 30.0072 12.0967 30.0326 12.0333 30.0072C11.97 29.9819 11.932 29.8932 11.97 29.8299C12.54 28.6772 13.6167 27.8792 14.364 27.4359C14.2373 27.3346 14.1234 27.2332 13.9967 27.1319C13.5027 27.2839 12.768 27.5626 11.9573 27.9806C10.7034 28.6392 9.05668 29.7792 8.24602 31.5779C8.22068 31.6412 8.14468 31.6666 8.06868 31.6412C8.00535 31.6159 7.96735 31.5272 8.00535 31.4639C8.85402 29.6019 10.5513 28.4112 11.8433 27.7399C12.578 27.3599 13.262 27.0939 13.756 26.9292C13.7433 26.9166 13.718 26.9039 13.7053 26.8786C13.3887 26.5999 13.0847 26.3339 12.768 26.0426C11.5013 25.9919 10.3613 26.2452 9.37335 26.8026C9.31002 26.8406 9.23402 26.8152 9.19602 26.7519C9.15802 26.6886 9.18335 26.5999 9.24668 26.5619C10.1587 26.0552 11.21 25.7766 12.3753 25.7639C12.4133 25.7639 12.4387 25.7639 12.4767 25.7639C12.0207 25.3206 11.59 24.8519 11.2227 24.3452C10.4627 23.2812 10.2347 22.1032 9.86735 20.8746C9.37335 19.1772 8.93002 17.4672 8.57535 15.7319C8.23335 14.0346 7.96735 12.2866 7.96735 10.5512C7.98002 9.24658 8.08135 7.73924 8.84135 6.63725C8.84135 6.63725 10.45 3.95191 15.77 12.6412C15.77 12.6412 17.822 12.2612 19.0507 12.2992C20.2793 12.2612 22.3314 12.6412 22.3314 12.6412C27.6514 3.95191 29.26 6.63725 29.26 6.63725C30.096 7.82791 30.1594 9.47458 30.1214 10.8806Z" fill="#FF6D6D"/>
<path d="M14.3514 13.0593C11.4 14.022 9.71535 18.4427 9.71535 18.4427C9.71535 18.4427 7.94202 7.15668 9.61402 7.39735C11.6534 7.68868 14.3514 13.0593 14.3514 13.0593Z" fill="white"/>
<path d="M17.6193 22.8505C17.6193 22.8505 17.1 21.7485 16.492 21.2165C16.2513 21.7485 15.7067 22.1285 15.086 22.1285C14.2373 22.1285 13.5406 21.4318 13.5406 20.5832C13.5406 19.7345 14.2373 19.0378 15.086 19.0378C15.542 19.0378 15.96 19.2405 16.2387 19.5572C16.2387 19.5572 17.3153 20.4945 17.6193 22.8505Z" fill="white"/>
<path d="M21.2293 28.3607C21.1787 28.3733 19.684 28.9053 19.0633 27.702C18.4427 28.9053 16.9353 28.3733 16.8973 28.3607C18.5187 28.69 18.7593 27.4993 18.7847 27.0307C18.1893 26.6507 16.8847 25.7387 17.2267 25.1433C17.67 24.3707 19.0633 24.852 19.0633 24.852C19.0633 24.852 20.4567 24.3707 20.9 25.1433C21.242 25.7513 19.9373 26.6633 19.342 27.0307C19.3673 27.4993 19.608 28.6773 21.2293 28.3607Z" fill="white"/>
<path d="M24.6493 20.5961C24.6493 21.4447 23.9527 22.1414 23.104 22.1414C22.4707 22.1414 21.9387 21.7614 21.698 21.2294C21.09 21.7614 20.5707 22.8634 20.5707 22.8634C20.862 20.5074 21.9513 19.5827 21.9513 19.5827C22.23 19.2661 22.648 19.0634 23.104 19.0634C23.9527 19.0507 24.6493 19.7347 24.6493 20.5961Z" fill="white"/>
<path d="M28.4113 18.4427C28.4113 18.4427 26.7267 14.022 23.7753 13.0593C23.7753 13.0593 26.4733 7.68868 28.5253 7.39735C30.1847 7.15668 28.4113 18.4427 28.4113 18.4427Z" fill="white"/>
<path d="M17.6193 22.8505C17.6193 22.8505 17.1 21.7485 16.492 21.2165C16.2513 21.7485 15.7067 22.1285 15.086 22.1285C14.2373 22.1285 13.5406 21.4318 13.5406 20.5832C13.5406 19.7345 14.2373 19.0378 15.086 19.0378C15.542 19.0378 15.96 19.2405 16.2387 19.5572C16.2387 19.5572 17.3153 20.4945 17.6193 22.8505Z" fill="#FF4848"/>
<path d="M24.6493 20.5958C24.6493 21.4445 23.9527 22.1412 23.104 22.1412C22.4707 22.1412 21.9387 21.7612 21.698 21.2292C21.09 21.7612 20.5707 22.8632 20.5707 22.8632C20.862 20.5072 21.9513 19.5825 21.9513 19.5825C22.23 19.2658 22.648 19.0632 23.104 19.0632C23.9527 19.0505 24.6493 19.7345 24.6493 20.5958Z" fill="#FF4848"/>
<path d="M19.342 27.0307C19.9373 26.6507 21.242 25.7387 20.9 25.1433C20.4567 24.3707 19.0633 24.852 19.0633 24.852C19.0633 24.852 17.67 24.3707 17.2267 25.1433C16.8847 25.7513 18.1893 26.6633 18.7847 27.0307C18.7467 27.4993 18.506 28.6773 16.8973 28.3607C16.948 28.3733 18.4427 28.9053 19.0633 27.702C19.684 28.9053 21.1913 28.3733 21.2293 28.3607C19.608 28.6773 19.3673 27.4993 19.342 27.0307Z" fill="#FF4848"/>
<path d="M14.3514 13.0593C11.4 14.022 9.71535 18.4427 9.71535 18.4427C9.71535 18.4427 7.94202 7.15668 9.61402 7.39735C11.6534 7.68868 14.3514 13.0593 14.3514 13.0593Z" fill="#FF4848"/>
<path d="M28.4113 18.4427C28.4113 18.4427 26.7267 14.022 23.7753 13.0593C23.7753 13.0593 26.4733 7.68868 28.5253 7.39735C30.1847 7.15668 28.4113 18.4427 28.4113 18.4427Z" fill="#FF4848"/>
</g>
<defs>
<filter id="filter0_i" x="0" y="0" width="38" height="42" filterUnits="userSpaceOnUse" color-interpolation-filters="sRGB">
<feFlood flood-opacity="0" result="BackgroundImageFix"/>
<feBlend mode="normal" in="SourceGraphic" in2="BackgroundImageFix" result="shape"/>
<feColorMatrix in="SourceAlpha" type="matrix" values="0 0 0 0 0 0 0 0 0 0 0 0 0 0 0 0 0 0 127 0" result="hardAlpha"/>
<feOffset dy="4"/>
<feGaussianBlur stdDeviation="2"/>
<feComposite in2="hardAlpha" operator="arithmetic" k2="-1" k3="1"/>
<feColorMatrix type="matrix" values="0 0 0 0 0 0 0 0 0 0 0 0 0 0 0 0 0 0 0.25 0"/>
<feBlend mode="normal" in2="shape" result="effect1_innerShadow"/>
</filter>
</defs>
</svg>
