<svg width="38" height="38" viewBox="0 0 38 38" fill="none" xmlns="http://www.w3.org/2000/svg">
<g filter="url(#filter0_i)">
<path d="M19.0127 0C8.51768 0 0 8.51484 0 19.0063C0 29.4978 8.505 38 19 38C29.495 38 38 29.4978 38 19.0063C38.0127 8.51484 29.5077 0 19.0127 0ZM3.81521 25.6966C3.48566 24.9617 3.21948 24.1887 3.004 23.4031C3.06738 23.3398 3.11808 23.2891 3.18145 23.2257C4.60107 21.8319 6.42628 21.021 8.58105 20.8183C10.3809 20.6536 12.0667 20.4255 13.7271 20.1214C13.9553 20.0834 14.2088 20.0327 14.437 19.9947C15.5904 19.8046 16.7818 19.6019 17.6438 19.1077C18.2522 18.7529 18.9746 17.5365 19.0507 16.2821C19.1014 15.5472 18.9493 14.5082 17.9733 13.7479C14.2088 10.8463 15.0327 5.11904 15.5777 2.74958C16.3129 2.59753 17.0734 2.48349 17.8339 2.43281C17.5804 3.31977 15.958 9.52851 19.2662 12.0754C20.6097 13.1144 21.2815 14.6476 21.1674 16.4215C21.0407 18.2841 20.014 20.1847 18.7085 20.9323C17.517 21.6165 16.072 21.8573 14.7919 22.0727C14.551 22.1107 14.3229 22.1487 14.1074 22.1867C12.3836 22.5035 10.6471 22.7316 8.78385 22.909C7.09806 23.061 5.7545 23.6566 4.67712 24.7209C4.36024 25.025 4.08139 25.3418 3.81521 25.6966ZM21.9406 19.906H29.6851C29.6851 19.906 30.1668 22.9597 24.1841 27.4452C19.3802 31.0564 13.6764 27.7619 11.2935 25.7219C10.6598 25.1897 10.9006 24.2014 11.7245 24.1761C20.3943 23.9607 21.9406 19.906 21.9406 19.906ZM28.5063 29.2444C26.4276 30.993 23.9686 32.1461 21.3702 32.5895C20.5971 32.7162 19.8112 32.7923 19.0253 32.7923C16.8959 32.7923 14.7665 32.2981 12.7765 31.3478C11.9019 30.9296 11.1034 30.4482 10.3936 29.9033C10.1401 29.7132 9.89926 29.4978 9.67111 29.2951C9.12608 28.8136 8.6064 28.3575 8.11207 28.2941C7.46564 28.2054 6.76851 28.5348 5.98265 29.2824C5.53902 28.7249 5.13342 28.142 4.76584 27.5212C5.7545 26.6469 6.95864 26.0007 8.37825 26.1907C9.51901 26.3428 10.3682 27.0904 11.0527 27.6986C11.2682 27.8886 11.471 28.066 11.6611 28.2054C12.2568 28.6616 12.9286 29.067 13.6764 29.4218C16.0087 30.5368 18.5437 30.917 21.0027 30.4988C23.2335 30.1187 25.3502 29.1304 27.1374 27.6225C28.8359 26.1907 30.0654 24.4548 30.6864 22.6049C31.9033 18.9557 31.6878 15.4965 30.1034 13.3298C29.0767 11.9233 27.543 11.1884 25.6798 11.2137C23.6011 11.2391 22.0674 10.5675 21.1167 9.23708C20.2675 8.03335 19.9633 6.38613 20.2295 4.32077C20.3182 3.59853 20.4703 2.96499 20.5844 2.49617C21.2942 2.55952 21.9913 2.67356 22.6758 2.83828C22.3082 4.11804 21.8519 6.65222 22.8279 8.03334C23.3602 8.78093 24.2728 9.13571 25.6418 9.11037C28.1894 9.08503 30.3696 10.1494 31.7892 12.1007C33.7665 14.8123 34.0961 18.9937 32.6638 23.2891C31.954 25.4938 30.509 27.5592 28.5063 29.2444Z" fill="#FF6D6D"/>
</g>
<defs>
<filter id="filter0_i" x="0" y="0" width="38" height="42" filterUnits="userSpaceOnUse" color-interpolation-filters="sRGB">
<feFlood flood-opacity="0" result="BackgroundImageFix"/>
<feBlend mode="normal" in="SourceGraphic" in2="BackgroundImageFix" result="shape"/>
<feColorMatrix in="SourceAlpha" type="matrix" values="0 0 0 0 0 0 0 0 0 0 0 0 0 0 0 0 0 0 127 0" result="hardAlpha"/>
<feOffset dy="4"/>
<feGaussianBlur stdDeviation="2"/>
<feComposite in2="hardAlpha" operator="arithmetic" k2="-1" k3="1"/>
<feColorMatrix type="matrix" values="0 0 0 0 0 0 0 0 0 0 0 0 0 0 0 0 0 0 0.15 0"/>
<feBlend mode="normal" in2="shape" result="effect1_innerShadow"/>
</filter>
</defs>
</svg>
