<svg width="1216" height="861" viewBox="0 0 1216 861" fill="none" xmlns="http://www.w3.org/2000/svg">
<g filter="url(#filter0_i)">
<path d="M1216.71 423.886V861.067H16.2059C16.2059 861.067 16.2059 766.87 16.2059 713.694C16.2059 660.518 73.9396 660.012 73.9396 660.012C73.9396 660.012 120.152 660.012 175.1 660.012C230.048 660.012 227.516 595.315 227.516 595.315C227.516 595.315 227.516 261.194 227.516 200.422C227.516 139.65 293.479 134.459 293.479 134.459C293.479 134.459 453.766 134.459 549.102 134.459C567.081 134.459 585.566 131.42 601.519 122.684C612.913 116.48 622.662 107.618 629.752 96.8558C634.31 89.8923 637.982 82.4224 640.261 74.4461C642.413 66.4697 642.033 57.9869 644.945 50.2638C646.085 47.2252 647.857 44.3132 649.883 41.781C657.1 33.1716 667.988 28.3605 678.623 25.5751C691.031 22.2832 703.945 21.397 716.733 21.397C794.724 21.397 1046.04 21.397 1046.04 21.397C1046.04 21.397 1098.08 27.221 1098.08 109.517C1098.08 191.812 1098.08 285.883 1098.08 285.883C1098.08 285.883 1095.55 316.016 1116.44 334.501C1125.68 342.73 1139.61 348.681 1160.5 348.681C1228.23 348.934 1216.71 423.886 1216.71 423.886Z" fill="#3D3D3D"/>
<path opacity="0.44" d="M462.629 538.341C462.629 538.341 472.631 550.622 473.137 577.083C473.644 603.544 472.124 625.574 462.629 635.07L456.045 554.167L462.629 538.341Z" fill="#D7DCFF"/>
<path d="M382.992 684.574V831.82L493.648 788.773V648.87L382.992 684.574Z" fill="#8E7470"/>
<path d="M382.992 684.574L267.904 633.551V773.073L382.992 831.82V684.574Z" fill="#3D3230"/>
<path d="M267.904 633.551L376.155 606.583L493.648 648.87L382.992 684.574L267.904 633.551Z" fill="#3D3230"/>
<path d="M374.256 551.508V667.102L307.406 636.589V533.656L374.256 551.508Z" fill="#191919"/>
<path d="M374.256 667.102L462.629 642.033V525.68L374.256 551.508V667.102Z" fill="#474747"/>
<path d="M307.406 533.656L394.513 512.133L462.629 525.68L374.256 551.508L307.406 533.656Z" fill="#191919"/>
<path d="M368.685 531.884C368.685 535.429 376.408 538.341 385.777 538.341C395.273 538.341 402.869 535.429 402.869 531.884V525.427H368.685V531.884Z" fill="#2B2B2B"/>
<path d="M385.777 531.884C395.217 531.884 402.869 528.993 402.869 525.427C402.869 521.86 395.217 518.969 385.777 518.969C376.337 518.969 368.685 521.86 368.685 525.427C368.685 528.993 376.337 531.884 385.777 531.884Z" fill="#AAAAAA"/>
<path d="M383.245 524.287L339.565 405.401C339.185 404.389 339.691 403.249 340.704 402.869C341.717 402.489 342.857 402.996 343.236 404.009L386.917 522.894C387.296 523.907 386.79 525.047 385.777 525.427C384.764 525.806 383.625 525.3 383.245 524.287Z" fill="#191919"/>
<path d="M385.777 525.427C384.891 524.92 384.511 523.781 385.017 522.768L459.843 383.118C460.35 382.232 461.489 381.852 462.502 382.359C463.388 382.865 463.768 384.005 463.262 385.017L388.436 524.667C387.929 525.553 386.663 525.933 385.777 525.427Z" fill="#191919"/>
<path d="M1216.71 424.646V674.698C1128.21 700.02 943.742 704.578 864.865 689.258C729.647 662.924 713.821 558.725 713.821 558.725C713.821 558.725 992.866 409.579 1116.69 335.387C1125.93 343.616 1139.86 349.567 1160.75 349.567C1228.36 349.694 1216.71 424.646 1216.71 424.646Z" fill="#1E1E1E"/>
<path d="M1089.72 637.729C1018.95 674.825 752.689 696.982 708.503 552.014L720.531 470.225C720.531 470.225 690.145 274.741 866.384 241.57H932.854C932.854 241.57 1033 239.164 1078.2 321.46C1123.4 403.755 1124.92 500.611 1107.57 535.175C1107.57 535.175 1111.25 539.733 1115.42 547.203C1116.69 549.482 1117.96 552.014 1119.22 554.8C1129.48 577.083 1136.06 613.546 1089.72 637.729Z" fill="#F25353"/>
<path d="M1115.42 547.203C1030.09 659.252 822.578 587.718 822.578 587.718C983.877 608.988 1107.57 535.176 1107.57 535.176C1107.57 535.176 1111.25 539.733 1115.42 547.203Z" fill="#C14040"/>
<path d="M938.678 259.421C938.678 259.421 995.778 277.526 1011.6 304.241C1027.43 330.955 1019.58 413.251 1030.34 442.118C1041.1 470.985 1035.03 523.021 998.184 528.845C961.341 534.669 953.111 538.467 927.03 551.888C900.948 565.308 793.584 536.948 762.185 453.386C730.659 369.824 809.41 338.045 809.41 338.045L870.182 290.441L938.678 259.421Z" fill="#C14040"/>
<path d="M771.174 732.939L917.534 695.082L845.114 671.913L760.286 694.703L771.174 732.939Z" fill="#1E1E1E"/>
<path d="M603.671 699.767L795.61 655.58L778.011 643.299L624.561 680.396L620.763 692.93L603.671 699.767Z" fill="#1E1E1E"/>
<path d="M689.891 658.619L774.846 638.488L762.185 626.081L689.638 648.87L689.891 658.619Z" fill="#1E1E1E"/>
<path d="M762.185 684.7L842.582 664.696L829.794 652.289L757.374 674.952L762.185 684.7Z" fill="#1E1E1E"/>
<path d="M493.648 788.773L442.624 861.193H16.2059V838.53L267.904 717.239V773.073L382.992 831.82L493.648 788.773Z" fill="#1E1E1E"/>
<path d="M675.711 607.849L677.737 659.506L689.892 658.619L688.246 607.469L675.711 607.849Z" fill="#7F4F3E"/>
<path d="M629.372 604.684L589.744 691.664L603.671 699.767L644.059 606.963L629.372 604.684Z" fill="#7F4F3E"/>
<path opacity="0.44" d="M628.106 607.216L589.617 691.791C589.617 691.791 599.113 697.235 598.606 696.981C598.1 696.728 636.083 610.254 636.083 610.254L628.106 607.216Z" fill="#D7DCFF"/>
<path d="M720.404 606.076L748.638 691.664L762.185 684.7L734.078 599.619L720.404 606.076Z" fill="#96695C"/>
<path d="M727.114 608.355C705.591 621.649 679.763 625.574 659.632 622.662C656.847 622.282 654.314 621.776 651.782 621.143C649.883 620.636 648.111 620.13 646.338 619.497C644.945 618.991 643.553 618.484 642.287 617.851C641.527 617.471 640.767 617.091 640.008 616.712C639.375 616.332 638.615 615.952 637.982 615.572C623.422 607.216 623.422 596.454 620.636 586.072L621.649 581.894L622.915 576.703L713.694 558.851C727.494 561.004 731.546 563.916 736.104 570.373C746.486 584.806 740.915 599.873 727.114 608.355Z" fill="#96695C"/>
<path d="M735.724 577.21C735.597 564.549 709.642 554.547 677.737 554.8C645.832 555.053 627.98 568.347 628.106 581.008C628.233 593.669 646.211 600.885 678.117 600.632C710.022 600.252 735.724 589.87 735.724 577.21Z" fill="#7F4F3E"/>
<path d="M603.671 699.767L620.763 692.93L645.325 611.647L639.881 616.585L603.671 699.767Z" fill="#96695C"/>
<path opacity="0.44" d="M659.632 622.662C656.847 622.282 654.314 621.776 651.782 621.143C647.604 619.75 642.92 618.104 642.287 617.851C641.527 617.471 640.767 617.091 640.008 616.712C639.375 616.332 638.742 615.952 637.982 615.572C623.422 607.216 623.422 596.454 620.636 586.072L621.649 581.894L628.106 578.602C627.98 579.362 627.98 580.122 627.98 580.881C628.106 591.137 640.134 597.847 661.911 599.873C664.57 600.885 669.634 604.937 659.632 622.662Z" fill="#D7DCFF"/>
<path d="M872.715 138.51C871.322 142.941 866.891 145.347 862.712 144.081C860.687 143.448 859.167 142.055 858.281 140.409C857.268 138.51 857.015 136.104 857.775 133.826C858.661 130.787 861.193 128.635 863.979 128.128C865.245 127.875 866.511 127.875 867.777 128.255C871.955 129.521 874.107 134.079 872.715 138.51Z" fill="#2B2B2B"/>
<path d="M791.305 470.225C790.799 470.225 760.033 488.963 760.033 488.963L775.859 499.978L804.219 481.24L791.305 470.225Z" fill="#D88248"/>
<path d="M841.949 294.619C841.949 294.619 782.443 349.693 677.484 321.207C677.484 321.207 677.611 384.258 772.694 396.286C867.524 408.313 841.949 294.619 841.949 294.619Z" fill="#D3D3D3"/>
<path d="M968.178 504.663L961.467 496.306L947.54 478.581C947.414 478.581 947.414 478.708 947.287 478.708C947.287 478.708 947.161 478.835 947.034 478.835C938.931 485.292 930.195 491.116 921.206 496.18C913.103 500.611 904.873 504.536 896.517 507.575C886.515 511.246 876.386 513.779 866.384 514.918C855.496 516.184 844.861 516.057 834.605 514.032C798.015 506.815 731.039 421.607 794.217 366.279C857.268 310.951 857.775 216.121 857.775 216.121C857.775 216.121 857.522 213.716 857.268 210.171C856.509 200.548 854.989 181.81 854.61 174.467C854.483 170.542 855.243 160.793 858.155 149.905C862.839 132.686 872.715 112.682 892.212 109.517C896.264 108.884 900.189 108.377 903.987 108.124C930.575 106.731 951.465 119.139 944.755 179.278C937.032 248.153 961.594 278.919 961.594 278.919C1039.96 363.494 968.178 504.663 968.178 504.663Z" fill="#EFEFEF"/>
<path opacity="0.44" d="M870.183 355.138C838.404 389.322 817.64 479.214 846.887 498.332C861.193 507.701 865.625 512.512 866.511 515.045C855.623 516.311 844.987 516.184 834.732 514.158C798.142 506.942 731.166 421.734 794.344 366.406C857.395 311.078 857.901 216.248 857.901 216.248C857.901 216.248 857.648 213.842 857.395 210.297L895.124 191.179C894.871 190.799 901.835 320.953 870.183 355.138Z" fill="#D7DCFF"/>
<path d="M857.268 211.183L891.199 193.711C895.631 191.432 898.416 186.875 898.416 181.937V180.164C898.416 180.164 857.015 202.701 857.268 211.183Z" fill="#D88248"/>
<path d="M893.478 157.375L898.29 180.164C898.29 180.164 852.077 210.93 844.861 224.984C837.644 238.911 800.041 220.173 805.865 206.626C811.689 193.205 854.483 171.935 854.483 171.935C854.483 171.935 850.052 159.78 858.028 149.778L867.017 157.248C868.663 159.147 872.335 157.501 874.614 156.615L885.629 152.817C889.174 151.804 892.845 153.83 893.478 157.375Z" fill="#FFA364"/>
<path opacity="0.44" d="M892.592 155.096C891.073 153.07 888.414 152.057 885.755 152.944L874.74 156.742C872.461 157.501 868.663 159.147 867.144 157.375L858.155 149.905C862.839 132.686 872.715 112.682 892.212 109.517C896.264 108.884 900.189 108.377 903.987 108.124C880.691 125.723 892.339 154.463 892.592 155.096Z" fill="#D7DCFF"/>
<path d="M788.646 541.253C788.646 541.253 769.908 546.19 743.574 553.28C738.003 554.8 732.179 556.319 725.975 557.965C713.187 561.383 699.387 565.182 685.587 568.98C661.025 575.69 636.336 582.527 616.838 588.098C604.684 591.516 595.061 593.036 587.212 593.036C555.686 593.162 553.787 569.613 546.064 553.913C541.253 544.038 531.757 517.703 531.251 493.015C531.124 487.95 531.377 483.139 532.137 478.328C534.922 459.59 545.304 444.397 570.246 442.244C624.814 437.56 622.789 515.931 622.789 515.931C622.789 515.931 622.789 515.931 622.915 515.931C623.548 515.551 626.967 513.778 632.284 510.866C638.362 507.701 646.844 503.143 656.34 498.332C659.252 496.813 662.291 495.294 665.329 493.648C668.874 491.875 672.419 490.103 675.964 488.203C695.082 478.581 713.947 469.465 722.05 466.807C726.735 465.287 731.292 464.274 735.724 463.768C749.398 462.375 762.058 466.807 775.859 480.227C794.217 498.079 788.646 541.253 788.646 541.253Z" fill="#EFEFEF"/>
<path d="M725.975 558.092C713.188 561.51 699.387 565.308 685.587 569.107C685.587 569.107 725.975 521.755 701.666 483.266C701.666 483.139 739.269 516.944 725.975 558.092Z" fill="#D3D3D3"/>
<path d="M652.162 555.053C673.179 525.933 665.329 493.648 665.329 493.648C668.874 491.875 672.42 490.103 675.965 488.204C683.688 541.886 652.162 555.053 652.162 555.053Z" fill="#D3D3D3"/>
<path d="M788.646 541.253C788.646 541.253 769.908 546.19 743.574 553.281C779.91 520.362 735.724 463.768 735.724 463.768C749.398 462.375 762.059 466.807 775.859 480.227C794.217 498.079 788.646 541.253 788.646 541.253Z" fill="#D3D3D3"/>
<path d="M877.652 505.549L773.2 547.457L785.228 682.295L772.694 734.331C772.694 734.331 772.187 733.825 771.174 733.065C768.642 731.166 763.325 727.748 757.374 728.001C756.235 728.001 755.095 728.254 753.956 728.507C753.956 728.507 753.323 727.621 751.93 726.228C749.271 723.823 743.7 720.151 733.445 718.632C731.166 718.252 728.76 717.999 725.975 717.872L775.606 684.194L761.172 538.847L861.32 489.217C861.32 489.217 881.071 485.798 877.652 505.549Z" fill="#FFA364"/>
<path d="M947.287 478.835C947.287 478.835 947.161 478.961 947.034 478.961C938.931 485.418 930.195 491.242 921.206 496.307C913.483 500.611 905.506 504.283 897.403 507.322C896.897 507.448 896.391 507.322 896.137 506.815C868.41 442.118 895.251 370.711 909.558 340.578C910.064 339.438 911.71 340.198 911.33 341.337C887.908 417.303 947.034 478.708 947.034 478.708L947.287 478.835Z" fill="#D3D3D3"/>
<path d="M604.43 577.716C602.025 586.072 594.682 590.63 587.338 593.162C586.958 593.162 586.705 593.162 586.325 593.162C555.686 592.783 553.787 569.613 546.19 554.04C541.379 544.165 531.884 517.83 531.377 493.141L531.504 490.989L532.263 478.455C532.263 478.455 544.798 453.386 565.562 470.225C586.199 487.064 609.748 558.978 604.43 577.716Z" fill="#D3D3D3"/>
<path d="M905.441 140.587C906.822 136.183 905.345 131.799 902.143 130.794C898.94 129.79 895.224 132.545 893.843 136.949C892.462 141.353 893.938 145.737 897.141 146.741C900.343 147.746 904.059 144.99 905.441 140.587Z" fill="#2B2B2B"/>
<path d="M868.916 181.557L869.296 181.81C870.309 182.57 870.309 184.089 869.296 184.722L863.092 188.774C862.333 189.28 861.447 189.154 860.813 188.52C860.18 187.887 860.18 186.875 860.687 186.115L864.738 181.304C865.245 180.797 865.878 180.544 866.511 180.797L868.157 181.177C868.663 181.43 868.79 181.43 868.916 181.557Z" fill="#2B2B2B"/>
<path d="M853.977 176.366L854.356 176.619C855.243 177.126 855.243 178.265 854.356 178.772L849.165 181.557C848.532 181.937 847.773 181.81 847.266 181.304C846.76 180.797 846.76 180.038 847.266 179.658L850.811 176.366C851.191 175.986 851.824 175.86 852.331 175.986L853.723 176.366C853.723 176.239 853.85 176.366 853.977 176.366Z" fill="#2B2B2B"/>
<path d="M722.81 328.423H666.342L657.606 319.307H714.074L722.81 328.423Z" fill="#4F4F4F"/>
<path d="M722.81 338.046H666.342L657.606 328.93H714.074L722.81 338.046Z" fill="#2B2B2B"/>
<path d="M657.606 319.307V328.93L666.342 338.045H722.81V328.423H666.342L657.606 319.307Z" fill="#2B2B2B"/>
<path d="M674.825 323.359H667.735V325.764H674.825V323.359Z" fill="#BF3A3A"/>
<path d="M671.28 326.904C673.238 326.904 674.825 326.394 674.825 325.764C674.825 325.135 673.238 324.625 671.28 324.625C669.322 324.625 667.735 325.135 667.735 325.764C667.735 326.394 669.322 326.904 671.28 326.904Z" fill="#BF3A3A"/>
<path d="M671.28 324.498C673.238 324.498 674.825 323.988 674.825 323.359C674.825 322.73 673.238 322.219 671.28 322.219C669.322 322.219 667.735 322.73 667.735 323.359C667.735 323.988 669.322 324.498 671.28 324.498Z" fill="#F25353"/>
<path d="M656.34 498.332C652.668 510.487 621.269 545.178 622.789 540.366C624.561 534.542 622.789 515.931 622.789 515.931C622.789 515.931 622.789 515.931 622.915 515.931C623.548 515.551 626.967 513.779 632.284 510.867C638.362 507.701 646.844 503.143 656.34 498.332Z" fill="#D3D3D3"/>
<path d="M968.178 504.663L961.468 496.307C1008.69 369.951 988.688 347.288 961.088 298.037C931.208 244.735 936.019 189.027 933.614 152.437C931.208 116.1 904.114 108.124 903.734 107.997C930.322 106.605 951.212 119.012 944.502 179.152C941.59 204.98 943.236 225.49 946.401 240.937C949.82 257.649 957.416 273.095 967.925 286.516C1035.66 371.85 968.178 504.663 968.178 504.663Z" fill="#D3D3D3"/>
<path d="M685.967 529.731C685.967 529.605 685.84 529.478 685.84 529.352C684.701 526.06 683.434 522.768 681.915 519.603C680.016 515.551 677.357 509.854 673.052 507.828C669.761 506.309 666.722 511.247 670.14 512.766C673.686 514.412 675.711 519.603 677.104 522.895C677.99 524.794 678.75 526.819 679.51 528.845C676.091 530.364 672.673 531.884 669.381 533.276C666.849 525.174 662.924 516.817 656.973 510.74C654.314 508.081 650.263 512.133 652.922 514.792C658.872 520.869 662.544 529.731 664.696 537.961C665.203 539.987 667.229 540.367 669.001 539.734C673.053 537.961 677.231 536.188 681.282 534.289C682.295 537.834 683.181 541.506 683.941 545.178C684.701 548.849 690.271 547.33 689.512 543.658C688.625 539.1 687.233 534.416 685.967 529.731Z" fill="#474747"/>
<path d="M747.752 521.375C746.865 516.691 745.979 512.006 745.093 507.448C745.093 507.195 745.093 507.068 744.966 506.815C744.84 506.435 744.713 506.056 744.587 505.802C743.447 502.764 742.054 499.852 740.535 497.066C738.383 493.015 735.597 487.571 731.293 485.545C727.874 484.026 724.962 488.963 728.381 490.483C731.926 492.129 734.078 497.066 735.851 500.358C736.863 502.257 737.75 504.156 738.509 506.056C734.838 507.701 731.293 509.347 727.621 510.867C725.089 502.764 721.164 494.408 715.34 488.457C712.681 485.798 708.63 489.85 711.288 492.508C717.239 498.586 720.911 507.448 723.063 515.678C723.569 517.577 725.595 518.21 727.368 517.45C731.672 515.551 735.977 513.652 740.155 511.753C740.915 515.551 741.548 519.223 742.308 523.021C742.941 526.566 748.511 525.047 747.752 521.375Z" fill="#474747"/>
<path d="M700.653 496.686C693.183 495.167 687.486 500.738 686.093 507.701C684.321 516.184 687.106 525.427 692.677 531.884C696.982 537.075 704.452 541 710.909 537.075C719.012 532.264 718.632 520.362 716.1 512.639C713.567 505.929 708.503 498.206 700.653 496.686ZM709.263 531.124C705.971 534.669 701.16 532.39 698.248 529.605C693.69 525.173 691.284 518.59 691.284 512.386C691.411 508.208 693.057 502.004 698.248 502.257C704.325 502.511 708.503 509.347 710.276 514.412C712.175 519.349 713.314 526.819 709.263 531.124Z" fill="#474747"/>
<path d="M339.565 401.983C340.824 401.983 341.844 400.963 341.844 399.704C341.844 398.445 340.824 397.425 339.565 397.425C338.306 397.425 337.286 398.445 337.286 399.704C337.286 400.963 338.306 401.983 339.565 401.983Z" fill="#191919"/>
<path d="M464.148 380.46C465.407 380.46 466.427 379.439 466.427 378.181C466.427 376.922 465.407 375.902 464.148 375.902C462.889 375.902 461.869 376.922 461.869 378.181C461.869 379.439 462.889 380.46 464.148 380.46Z" fill="#191919"/>
<path d="M766.237 699.387L751.93 726.228C749.271 723.823 743.7 720.151 733.445 718.632L766.237 699.387Z" fill="#D88248"/>
<path d="M775.099 698.627L771.174 733.065C768.642 731.166 763.325 727.747 757.374 728.001L775.099 698.627Z" fill="#D88248"/>
<path d="M641.653 568.347C641.147 568.98 640.387 568.98 639.881 568.474C638.995 567.461 631.018 558.978 631.778 554.294C631.905 553.154 632.664 552.268 633.677 551.635C635.45 550.748 637.222 550.495 638.868 551.002C639.375 551.128 639.881 551.508 640.387 551.761C640.894 552.141 641.527 551.888 641.78 551.382C642.286 550.495 642.92 549.609 643.806 549.229C644.565 548.849 645.958 548.723 647.604 549.862C648.364 550.495 648.997 551.255 649.123 552.394C649.756 557.332 642.54 567.208 641.653 568.347ZM636.842 553.027C636.209 553.027 635.45 553.281 634.69 553.66C634.31 553.914 634.057 554.167 634.057 554.547C633.677 556.699 636.589 561.004 639.375 564.296C640.008 565.055 641.02 564.929 641.527 564.169C643.932 560.624 646.971 555.306 646.591 552.648C646.465 552.015 646.211 551.888 646.085 551.761C645.705 551.508 645.072 551.128 644.692 551.382C643.806 551.761 643.173 554.167 643.046 555.56L642.92 557.712C642.92 558.345 642.033 558.472 641.653 557.965L640.767 556.066C640.767 556.066 639.754 554.04 637.982 553.407C637.602 553.154 637.222 553.027 636.842 553.027Z" fill="#474747"/>
<path d="M660.645 543.278C660.518 542.645 660.138 542.139 659.505 541.759C658.493 541.253 657.48 541.126 656.467 541.379C655.96 541.506 655.454 541.886 654.947 542.392C654.694 541.633 654.314 540.62 653.428 540.24C652.795 539.987 652.035 540.113 651.149 540.62C650.643 541 650.389 541.506 650.263 542.139C649.756 545.178 654.441 551.381 654.694 551.761L655.201 552.394L655.707 551.888C656.34 551.255 661.025 546.191 660.645 543.278ZM659.252 543.532C659.505 545.051 657.1 548.216 655.96 549.482C655.834 549.736 655.58 549.736 655.327 549.736C655.074 549.736 654.821 549.609 654.694 549.356C653.681 547.836 651.402 544.165 651.656 542.266C651.656 542.012 651.782 541.759 652.035 541.633C652.289 541.379 652.542 541.379 652.795 541.379C652.922 541.379 652.922 541.379 653.048 541.379C653.555 541.633 653.935 543.025 654.061 543.912V544.038H654.314C654.821 544.165 655.327 543.912 655.58 543.532C655.834 543.152 656.34 542.645 656.973 542.392C657.606 542.139 658.239 542.266 658.999 542.645C659.126 543.152 659.252 543.278 659.252 543.532Z" fill="#474747"/>
<path d="M677.737 659.505L675.711 652.289L673.559 615.825L677.104 622.282L677.737 659.505Z" fill="#96695C"/>
<path d="M748.638 691.664L738.763 687.612L719.518 612.407L722.05 611.014L748.638 691.664Z" fill="#7F4F3E"/>
<path opacity="0.44" d="M586.325 593.162C555.686 592.783 553.787 569.613 546.19 554.04C541.379 544.165 531.884 517.83 531.377 493.141L531.504 490.989C532.517 487.317 537.961 468.073 548.849 469.339C560.624 470.605 605.064 550.115 586.325 593.162Z" fill="#D7DCFF"/>
<path d="M898.29 132.306C898.29 132.306 893.225 137.371 895.504 143.068C895.504 143.068 896.77 145.094 897.277 145.22C897.783 145.347 896.011 138.637 900.569 133.572C900.695 133.572 899.429 131.547 898.29 132.306Z" fill="#CDCFE8"/>
<path d="M863.979 128.001C861.7 130.027 858.661 133.825 858.408 140.283C857.395 138.383 857.142 135.978 857.901 133.699C858.788 130.787 861.193 128.635 863.979 128.001Z" fill="#CDCFE8"/>
</g>
<defs>
<filter id="filter0_i" x="0" y="0" width="1227.53" height="880.5" filterUnits="userSpaceOnUse" color-interpolation-filters="sRGB">
<feFlood flood-opacity="0" result="BackgroundImageFix"/>
<feBlend mode="normal" in="SourceGraphic" in2="BackgroundImageFix" result="shape"/>
<feColorMatrix in="SourceAlpha" type="matrix" values="0 0 0 0 0 0 0 0 0 0 0 0 0 0 0 0 0 0 127 0" result="hardAlpha"/>
<feOffset dx="5" dy="5"/>
<feGaussianBlur stdDeviation="4.5"/>
<feComposite in2="hardAlpha" operator="arithmetic" k2="-1" k3="1"/>
<feColorMatrix type="matrix" values="0 0 0 0 0 0 0 0 0 0 0 0 0 0 0 0 0 0 0.25 0"/>
<feBlend mode="normal" in2="shape" result="effect1_innerShadow"/>
</filter>
</defs>
</svg>
