<svg width="42" height="42" viewBox="0 0 42 42" fill="none" xmlns="http://www.w3.org/2000/svg">
<path d="M30.6804 25.2365L29.1954 26.917H24.096L21.3362 31.5106L20.4956 25.8527L20.0754 27.1131H13.0147L11.5297 25.4325H18.8706L21.1401 18.6963L22.3028 26.6229L23.1434 25.2365H30.6804Z" fill="white"/>
<path d="M21.014 0C9.41427 0 0 9.41114 0 21.007C0 32.6029 9.40026 42 21 42C32.5997 42 42 32.6029 42 21.007C42.014 9.41114 32.6137 0 21.014 0ZM21.014 36.1741L13.0147 27.113H20.0894L20.5097 25.8666L21.3362 31.5245L24.0961 26.917H29.1955L21.014 36.1741ZM33.3142 22.2394L30.6664 25.2364H23.1294L22.3029 26.6229L21.1401 18.6962L18.8706 25.4325H11.5297L8.71381 22.2394C7.63509 21.007 6.96264 19.3825 6.96264 17.6179C6.96264 13.7386 10.1147 10.6015 13.9813 10.6015C17.8479 10.6015 21 13.7526 21 17.6179C21 13.7386 24.1521 10.6015 28.0187 10.6015C31.8852 10.6015 35.0373 13.7526 35.0373 17.6179C35.0514 19.3825 34.3929 21.007 33.3142 22.2394Z" fill="#FF6D6D"/>
</svg>
