<svg width="42" height="42" viewBox="0 0 42 42" fill="none" xmlns="http://www.w3.org/2000/svg">
<path d="M21.0148 0C9.40409 0 0 9.40409 0 21C0 32.5959 9.40409 42 21 42C32.5959 42 42 32.5959 42 21C42.0148 9.40409 32.6107 0 21.0148 0ZM21.2221 10.3519C19.5338 8.66361 19.6079 5.90903 21.4147 4.3244C22.9549 2.96192 25.3096 2.96192 26.8646 4.30959C28.6565 5.87941 28.7454 8.61918 27.1164 10.2927C28.8046 8.66361 31.5296 8.73766 33.0994 10.5444C34.4471 12.0846 34.4471 14.4542 33.0846 15.9944C31.4852 17.8011 28.7306 17.8604 27.0571 16.1869C27.0275 16.1573 26.9979 16.1276 26.9683 16.0832C26.6424 15.7426 26.1093 15.7426 25.7835 16.0684L21.1185 20.7334L19.7708 16.4683L16.6164 16.1425L21.2221 11.5367C21.5628 11.2109 21.5479 10.6777 21.2221 10.3519ZM16.2905 26.7609C16.3202 26.7905 16.3646 26.8202 16.3942 26.8498C18.0677 28.5233 18.0085 31.2779 16.2017 32.8773C14.6615 34.2398 12.3068 34.2398 10.7518 32.8921C8.94499 31.3223 8.87094 28.5825 10.5 26.909C8.88575 28.464 6.29407 28.464 4.69464 26.8646C3.03597 25.2059 3.08039 22.4661 4.84273 20.8667C6.32369 19.519 8.61918 19.445 10.189 20.7038C10.3223 20.8075 10.4408 20.9111 10.5592 21.0296C10.885 21.3554 11.4034 21.3554 11.7292 21.0296L14.8392 17.9196L18.0233 18.4676C18.0233 18.4676 18.8526 20.8223 19.3857 22.4661L16.2757 25.5762C15.9499 25.9168 15.9499 26.4499 16.2905 26.7609ZM34.2546 32.6848L26.7313 30.8188L26.4203 39.0529L20.4224 31.1594L24.5691 33.1291L25.0874 27.1608L30.1227 28.6862L28.7306 22.7031L34.4323 21.1037L29.7376 18.4676L40.3413 20.2151L31.9591 25.1319L34.2546 32.6848Z" fill="#FF6D6D"/>
</svg>
