<svg width="42" height="42" viewBox="0 0 42 42" fill="none" xmlns="http://www.w3.org/2000/svg">
<path d="M21 0C9.3988 0 0 9.3988 0 21C0 32.5872 9.3988 42 21 42C32.6012 42 42 32.6012 42 21C42 9.3988 32.6012 0 21 0ZM14.3507 20.1022C14.0842 20.4108 13.8036 20.7475 13.509 21.1824C12.6252 22.4449 13.4529 23.0341 12.5691 24.2826C11.6854 25.5451 10.0301 24.479 9.34268 25.8537C8.61322 27.2846 10.1844 29.5571 9.16032 30.7214C9.90381 29.3747 7.68737 26.513 8.57114 25.2505C9.45491 23.988 10.7034 24.5912 11.5872 23.3287C12.4709 22.0661 11.6854 21.2665 12.5691 20.018C12.7655 19.7515 12.9198 19.513 13.0601 19.3026C12.2465 18.1663 12.485 16.1323 13.7335 14.3647C15.1784 12.3166 17.4228 11.4048 18.7555 12.3447C20.0882 13.2846 20.004 15.7114 18.5591 17.7595C17.3948 19.4289 15.6693 20.3407 14.3507 20.1022ZM29.515 26.8497C28.3226 28.5611 26.5551 29.4729 25.2224 29.1924C25.1383 29.3327 25.0401 29.487 24.9279 29.6413C24.0581 30.9038 23.2164 30.3427 22.3467 31.6052C21.477 32.8818 22.3186 33.4569 21.4489 34.7194C20.5792 35.982 18.2926 36.2064 17.2826 37.3707C18.012 36.01 19.6954 35.2665 20.7896 34.0882C21.8277 32.9519 20.6072 32.0401 21.4769 30.7775C22.3467 29.515 22.6413 29.9499 23.511 28.6733C23.6373 28.491 23.7495 28.3226 23.8477 28.1543C23.2164 26.99 23.511 25.0962 24.6613 23.4549C26.1062 21.4068 28.3507 20.495 29.6834 21.4349C31.0441 22.3747 30.9599 24.8016 29.515 26.8497ZM30.4268 13.2986C29.2485 14.982 27.523 15.8798 26.2044 15.6553C25.9379 15.9639 25.6573 16.3006 25.3487 16.7355C24.4649 17.998 25.2926 18.5872 24.4088 19.8357C23.525 21.0982 21.5611 19.6814 20.8597 21.0561C20.1303 22.487 19.6112 24.002 18.5872 25.1523C19.3307 23.8056 19.3026 21.519 20.1864 20.2565C21.0701 18.994 22.1222 20.1162 23.006 18.8537C23.8898 17.5912 23.0621 17.002 23.9459 15.7535C24.2405 15.3327 24.521 14.982 24.7876 14.6593C24.1283 13.495 24.3948 11.5731 25.5731 9.90381C27.018 7.85571 29.2625 6.94389 30.5952 7.88377C31.9559 8.82365 31.8717 11.2505 30.4268 13.2986Z" fill="#FF6D6D"/>
</svg>
