<svg width="42" height="42" viewBox="0 0 42 42" fill="none" xmlns="http://www.w3.org/2000/svg">
<path d="M21.0072 0C9.40255 0 0 9.40255 0 20.9928C0 32.583 9.40255 42 21.0072 42C32.6119 42 42 32.5974 42 20.9928C42 9.38806 32.5975 0 21.0072 0ZM29.4246 13.7489V20.9928C29.4246 20.9928 27.3529 28.1207 19.7903 28.1352L20.5871 25.1942L10.5326 34.4519C8.85202 34.3939 7.76544 34.2491 7.76544 34.2491C7.76544 34.2491 11.8075 29.6999 15.8496 24.6292C16.3567 24.6147 16.9507 24.5857 17.6316 24.5423C24.9334 23.9917 27.0921 17.6171 27.1645 17.4143C25.8027 19.9641 21.297 21.6592 19.8772 22.1518C19.6019 22.2387 19.3267 22.3111 19.0369 22.3401C18.6892 22.3836 18.1387 22.4415 17.5157 22.514C20.9203 18.0952 23.9193 13.7199 23.9193 11.9524C23.9193 7.83788 26.1649 7.54812 27.179 7.54812C29.2798 7.54812 30.12 9.53294 30.3374 10.1704C30.8879 10.1269 31.6847 10.1269 32.7278 10.2284C34.4084 10.4022 34.6402 11.199 34.6837 12.2711C34.6547 12.2711 29.4246 11.0976 29.4246 13.7489Z" fill="#FF6D6D"/>
<path d="M28.1642 9.53271C27.773 9.53271 27.4543 9.85145 27.4543 10.2426C27.4543 10.6338 27.773 10.9525 28.1642 10.9525C28.5554 10.9525 28.8741 10.6338 28.8741 10.2426C28.8886 9.85145 28.5698 9.53271 28.1642 9.53271Z" fill="#FF6D6D"/>
</svg>
