<svg width="42" height="42" viewBox="0 0 42 42" fill="none" xmlns="http://www.w3.org/2000/svg">
<path d="M21 0C9.41282 0 0 9.3988 0 21C0 32.6012 9.3988 42 21 42C32.6012 42 42 32.6012 42 21C42 9.3988 32.6012 0 21 0ZM5.16232 21C5.16232 21 9.77755 14.1263 20.5371 13.986C19.7234 14.6874 17.6052 16.8898 17.6052 21C17.6052 25.0962 19.7234 27.3126 20.5371 28C9.77755 27.8737 5.16232 21 5.16232 21ZM21.1543 28C21.9679 27.2986 24.0862 25.0962 24.0862 21C24.0862 16.9038 21.9679 14.6874 21.1543 13.986C31.8998 14.1122 36.5291 21 36.5291 21C36.5291 21 31.9138 27.8737 21.1543 28Z" fill="#FF6D6D"/>
</svg>
