<svg width="42" height="42" viewBox="0 0 42 42" fill="none" xmlns="http://www.w3.org/2000/svg">
<path d="M21.0144 0C9.41329 0 0 9.3989 0 21C0 32.6011 9.3989 42 21 42C32.6011 42 42 32.6011 42 21C42.0144 9.3989 32.6155 0 21.0144 0ZM26.2968 6.40507C26.2248 6.49143 23.8787 9.32694 24.0658 17.6607C24.0946 18.5819 24.1378 19.5607 24.2385 20.6114C24.2529 20.7409 24.2673 20.8705 24.2673 21C24.2673 21.072 24.2817 21.1295 24.2817 21.2015C24.2817 23.0151 22.8136 24.4832 21 24.4832C19.2872 24.4832 17.891 23.1734 17.7327 21.5182C17.7183 21.4174 17.7183 21.3167 17.7183 21.2015C17.7183 21.1295 17.7183 21.072 17.7183 21H17.7039C17.7183 20.3235 17.7903 19.0425 18.1933 17.4448C18.9993 14.2927 21.0576 9.88828 26.2968 6.40507ZM21.0144 36.7464C12.3208 36.7464 5.26799 29.6936 5.26799 21H9.75874C9.58601 20.0932 8.43454 13.0836 15.4873 9.47087C15.4873 9.47087 9.90267 17.0418 13.2132 21H16.3365C16.3365 21.072 16.3365 21.1295 16.3365 21.2015C16.3365 23.7923 18.438 25.8794 21.0144 25.8794C23.6052 25.8794 25.6922 23.7779 25.6922 21.2015C25.6922 21.1295 25.6922 21.072 25.6922 21H29.5497C29.377 20.0932 28.2255 13.0836 35.2783 9.47087C35.2783 9.47087 29.6936 17.0418 33.0041 21H36.7608C36.7608 29.6936 29.708 36.7464 21.0144 36.7464Z" fill="#FF6D6D"/>
</svg>
