<svg width="42" height="42" viewBox="0 0 42 42" fill="none" xmlns="http://www.w3.org/2000/svg">
<path d="M21 0C9.3988 0 0 9.3988 0 21C0 32.5872 9.3988 42 21 42C32.6012 42 42 32.6012 42 21C42 9.3988 32.6012 0 21 0ZM16.8337 11.3066C17.479 6.2004 19.2605 6.48096 19.2605 6.48096C19.2605 6.48096 19.3727 7.60321 19.3868 7.65932C19.5411 8.48697 19.7936 9.31463 20.2425 10.016C20.5792 10.5631 21.0421 11.0261 21.6032 11.3347C21.7996 11.4469 22.01 11.517 22.2204 11.6012C22.4028 11.6713 22.5992 11.7555 22.7675 11.8818C23.1463 12.1483 23.4409 12.499 23.6513 12.9058C24.1563 13.9299 24.002 15.2906 23.3006 16.1884C22.8657 16.7355 22.1503 16.9319 21.491 17.002C19.8778 17.1844 16.1743 16.4269 16.8337 11.3066ZM12.0641 19.5551C12.4008 17.8858 13.8176 16.8056 15.3186 17.0581C17.9279 17.493 22.0381 17.9279 25.7134 17.2545C27.1303 17.002 28.519 17.9138 28.9539 19.4569C29.0521 19.7936 29.0942 20.1303 29.0942 20.4669C29.0942 22.01 28.1122 23.4128 26.6673 23.6794C24.9419 23.988 23.1603 24.1142 21.4629 24.1142C18.7836 24.1142 16.3006 23.8196 14.4629 23.511C12.7936 23.2305 11.6854 21.4068 12.0641 19.5551ZM32.0962 30.1042C27.5371 31.1984 23.5671 31.5912 20.2004 31.5912C15.515 31.5912 11.994 30.8196 9.70741 30.0902C8.02405 29.5571 7.18236 27.3407 7.95391 25.503C8.54309 24.1002 9.88978 23.3848 11.1663 23.7916C12.1764 24.1142 13.5371 24.4649 15.2345 24.7174C18.6012 25.2084 23.9459 25.3908 31.002 23.7074C32.4609 23.3567 33.8918 24.4369 34.2425 26.1202C34.6212 27.9439 33.6533 29.7395 32.0962 30.1042Z" fill="#FF6D6D"/>
</svg>
