<svg width="42" height="42" viewBox="0 0 42 42" fill="none" xmlns="http://www.w3.org/2000/svg">
<path d="M21.0143 0C9.4064 0 0 9.4064 0 21C0 32.6079 9.40639 42 21 42C32.5936 42 42 32.5936 42 21C42.0143 9.4064 32.6079 0 21.0143 0ZM35.3669 18.3839C33.7658 20.1995 30.9925 20.2566 29.3056 18.5841C29.277 18.5555 29.2342 18.5126 29.2056 18.484C28.8911 18.1409 28.3478 18.1409 28.019 18.4697L18.4697 28.0191C18.1409 28.3479 18.1409 28.8911 18.484 29.2056C18.5126 29.2342 18.5555 29.2628 18.5841 29.3057C20.2709 30.9925 20.1994 33.7658 18.3839 35.3669C16.84 36.725 14.467 36.7393 12.9088 35.3812C11.1218 33.7801 11.0361 31.0354 12.68 29.3485C11.0504 30.921 8.4629 30.9067 6.86181 29.3057C5.18924 27.6331 5.24642 24.8884 7.01906 23.2873C8.52008 21.9292 10.8073 21.8577 12.3941 23.1157C12.5228 23.2158 12.6515 23.3302 12.7658 23.4445C13.0946 23.7733 13.6235 23.7733 13.938 23.4445L23.4874 13.8952C23.8162 13.5664 23.8019 13.0374 23.4731 12.7086C23.4731 12.7086 23.4731 12.7086 23.4588 12.7086C21.7719 11.0218 21.8434 8.24847 23.6589 6.64738C25.2028 5.27502 27.5759 5.27502 29.1341 6.63308C30.9496 8.21988 31.0211 10.9646 29.3914 12.6515C31.0783 11.0075 33.823 11.0933 35.4098 12.9088C36.7393 14.467 36.725 16.84 35.3669 18.3839Z" fill="#FF6D6D"/>
</svg>
