<svg width="42" height="42" viewBox="0 0 42 42" fill="none" xmlns="http://www.w3.org/2000/svg">
<path d="M17.5491 11.3206C17.6473 11.7275 17.7595 12.1483 17.8858 12.5832H24.1142C24.2405 12.1483 24.3527 11.7275 24.4509 11.3206H17.5491ZM19.1763 16.0902C19.6814 17.1844 20.2705 18.2786 21 19.3447C21.7154 18.2786 22.3186 17.1844 22.8236 16.0902H19.1763ZM18.2365 13.7054C18.3768 14.1263 18.5311 14.5471 18.6994 14.9679H23.2866C23.4549 14.5471 23.6092 14.1263 23.7495 13.7054H18.2365ZM17.0721 8.93587C17.1423 9.34268 17.2124 9.76353 17.2966 10.1984H24.7034C24.7876 9.76353 24.8717 9.34268 24.9279 8.93587H17.0721ZM17.5491 11.3206C17.6473 11.7275 17.7595 12.1483 17.8858 12.5832H24.1142C24.2405 12.1483 24.3527 11.7275 24.4509 11.3206H17.5491ZM19.1763 16.0902C19.6814 17.1844 20.2705 18.2786 21 19.3447C21.7154 18.2786 22.3186 17.1844 22.8236 16.0902H19.1763ZM18.2365 13.7054C18.3768 14.1263 18.5311 14.5471 18.6994 14.9679H23.2866C23.4549 14.5471 23.6092 14.1263 23.7495 13.7054H18.2365ZM17.0721 8.93587C17.1423 9.34268 17.2124 9.76353 17.2966 10.1984H24.7034C24.7876 9.76353 24.8717 9.34268 24.9279 8.93587H17.0721ZM17.0721 8.93587C17.1423 9.34268 17.2124 9.76353 17.2966 10.1984H24.7034C24.7876 9.76353 24.8717 9.34268 24.9279 8.93587H17.0721ZM17.5491 11.3206C17.6473 11.7275 17.7595 12.1483 17.8858 12.5832H24.1142C24.2405 12.1483 24.3527 11.7275 24.4509 11.3206H17.5491ZM19.1763 16.0902C19.6814 17.1844 20.2705 18.2786 21 19.3447C21.7154 18.2786 22.3186 17.1844 22.8236 16.0902H19.1763ZM18.2365 13.7054C18.3768 14.1263 18.5311 14.5471 18.6994 14.9679H23.2866C23.4549 14.5471 23.6092 14.1263 23.7495 13.7054H18.2365ZM19.1763 16.0902C19.6814 17.1844 20.2705 18.2786 21 19.3447C21.7154 18.2786 22.3186 17.1844 22.8236 16.0902H19.1763ZM18.2365 13.7054C18.3768 14.1263 18.5311 14.5471 18.6994 14.9679H23.2866C23.4549 14.5471 23.6092 14.1263 23.7495 13.7054H18.2365ZM17.5491 11.3206C17.6473 11.7275 17.7595 12.1483 17.8858 12.5832H24.1142C24.2405 12.1483 24.3527 11.7275 24.4509 11.3206H17.5491ZM17.0721 8.93587C17.1423 9.34268 17.2124 9.76353 17.2966 10.1984H24.7034C24.7876 9.76353 24.8717 9.34268 24.9279 8.93587H17.0721ZM17.0721 8.93587C17.1423 9.34268 17.2124 9.76353 17.2966 10.1984H24.7034C24.7876 9.76353 24.8717 9.34268 24.9279 8.93587H17.0721ZM17.5491 11.3206C17.6473 11.7275 17.7595 12.1483 17.8858 12.5832H24.1142C24.2405 12.1483 24.3527 11.7275 24.4509 11.3206H17.5491ZM18.2365 13.7054C18.3768 14.1263 18.5311 14.5471 18.6994 14.9679H23.2866C23.4549 14.5471 23.6092 14.1263 23.7495 13.7054H18.2365ZM19.1763 16.0902C19.6814 17.1844 20.2705 18.2786 21 19.3447C21.7154 18.2786 22.3186 17.1844 22.8236 16.0902H19.1763ZM19.1763 16.0902C19.6814 17.1844 20.2705 18.2786 21 19.3447C21.7154 18.2786 22.3186 17.1844 22.8236 16.0902H19.1763ZM18.2365 13.7054C18.3768 14.1263 18.5311 14.5471 18.6994 14.9679H23.2866C23.4549 14.5471 23.6092 14.1263 23.7495 13.7054H18.2365ZM17.5491 11.3206C17.6473 11.7275 17.7595 12.1483 17.8858 12.5832H24.1142C24.2405 12.1483 24.3527 11.7275 24.4509 11.3206H17.5491ZM17.0721 8.93587C17.1423 9.34268 17.2124 9.76353 17.2966 10.1984H24.7034C24.7876 9.76353 24.8717 9.34268 24.9279 8.93587H17.0721ZM17.0721 8.93587C17.1423 9.34268 17.2124 9.76353 17.2966 10.1984H24.7034C24.7876 9.76353 24.8717 9.34268 24.9279 8.93587H17.0721ZM24.1142 29.6834H17.8858C17.7595 30.1182 17.6473 30.5391 17.5491 30.9459H24.4509C24.3527 30.5391 24.2405 30.1182 24.1142 29.6834ZM21 22.9218C20.2846 23.988 19.6814 25.0822 19.1763 26.1763H22.8236C22.3186 25.0822 21.7154 23.988 21 22.9218ZM23.3006 27.2986H18.7134C18.5451 27.7194 18.3908 28.1403 18.2505 28.5611H23.7776C23.6232 28.1543 23.4689 27.7335 23.3006 27.2986ZM24.7034 32.0681H17.2966C17.2124 32.503 17.1283 32.9238 17.0721 33.3307H24.9279C24.8717 32.9379 24.7876 32.503 24.7034 32.0681ZM17.5491 11.3206C17.6473 11.7275 17.7595 12.1483 17.8858 12.5832H24.1142C24.2405 12.1483 24.3527 11.7275 24.4509 11.3206H17.5491ZM18.2365 13.7054C18.3768 14.1263 18.5311 14.5471 18.6994 14.9679H23.2866C23.4549 14.5471 23.6092 14.1263 23.7495 13.7054H18.2365ZM19.1763 16.0902C19.6814 17.1844 20.2705 18.2786 21 19.3447C21.7154 18.2786 22.3186 17.1844 22.8236 16.0902H19.1763ZM24.1142 29.6834H17.8858C17.7595 30.1182 17.6473 30.5391 17.5491 30.9459H24.4509C24.3527 30.5391 24.2405 30.1182 24.1142 29.6834ZM21 22.9218C20.2846 23.988 19.6814 25.0822 19.1763 26.1763H22.8236C22.3186 25.0822 21.7154 23.988 21 22.9218ZM23.3006 27.2986H18.7134C18.5451 27.7194 18.3908 28.1403 18.2505 28.5611H23.7776C23.6232 28.1543 23.4689 27.7335 23.3006 27.2986ZM19.1763 16.0902C19.6814 17.1844 20.2705 18.2786 21 19.3447C21.7154 18.2786 22.3186 17.1844 22.8236 16.0902H19.1763ZM18.2365 13.7054C18.3768 14.1263 18.5311 14.5471 18.6994 14.9679H23.2866C23.4549 14.5471 23.6092 14.1263 23.7495 13.7054H18.2365ZM17.5491 11.3206C17.6473 11.7275 17.7595 12.1483 17.8858 12.5832H24.1142C24.2405 12.1483 24.3527 11.7275 24.4509 11.3206H17.5491ZM17.0721 8.93587C17.1423 9.34268 17.2124 9.76353 17.2966 10.1984H24.7034C24.7876 9.76353 24.8717 9.34268 24.9279 8.93587H17.0721ZM17.0721 8.93587C17.1423 9.34268 17.2124 9.76353 17.2966 10.1984H24.7034C24.7876 9.76353 24.8717 9.34268 24.9279 8.93587H17.0721ZM24.7034 32.0681H17.2966C17.2124 32.503 17.1283 32.9238 17.0721 33.3307H24.9279C24.8717 32.9379 24.7876 32.503 24.7034 32.0681ZM17.5491 11.3206C17.6473 11.7275 17.7595 12.1483 17.8858 12.5832H24.1142C24.2405 12.1483 24.3527 11.7275 24.4509 11.3206H17.5491ZM24.1142 29.6834H17.8858C17.7595 30.1182 17.6473 30.5391 17.5491 30.9459H24.4509C24.3527 30.5391 24.2405 30.1182 24.1142 29.6834ZM18.2365 13.7054C18.3768 14.1263 18.5311 14.5471 18.6994 14.9679H23.2866C23.4549 14.5471 23.6092 14.1263 23.7495 13.7054H18.2365ZM21 22.9218C20.2846 23.988 19.6814 25.0822 19.1763 26.1763H22.8236C22.3186 25.0822 21.7154 23.988 21 22.9218ZM23.3006 27.2986H18.7134C18.5451 27.7194 18.3908 28.1403 18.2505 28.5611H23.7776C23.6232 28.1543 23.4689 27.7335 23.3006 27.2986ZM19.1763 16.0902C19.6814 17.1844 20.2705 18.2786 21 19.3447C21.7154 18.2786 22.3186 17.1844 22.8236 16.0902H19.1763ZM21 22.9218C20.2846 23.988 19.6814 25.0822 19.1763 26.1763H22.8236C22.3186 25.0822 21.7154 23.988 21 22.9218ZM19.1763 16.0902C19.6814 17.1844 20.2705 18.2786 21 19.3447C21.7154 18.2786 22.3186 17.1844 22.8236 16.0902H19.1763ZM23.3006 27.2986H18.7134C18.5451 27.7194 18.3908 28.1403 18.2505 28.5611H23.7776C23.6232 28.1543 23.4689 27.7335 23.3006 27.2986ZM18.2365 13.7054C18.3768 14.1263 18.5311 14.5471 18.6994 14.9679H23.2866C23.4549 14.5471 23.6092 14.1263 23.7495 13.7054H18.2365ZM24.1142 29.6834H17.8858C17.7595 30.1182 17.6473 30.5391 17.5491 30.9459H24.4509C24.3527 30.5391 24.2405 30.1182 24.1142 29.6834ZM17.5491 11.3206C17.6473 11.7275 17.7595 12.1483 17.8858 12.5832H24.1142C24.2405 12.1483 24.3527 11.7275 24.4509 11.3206H17.5491ZM17.0721 8.93587C17.1423 9.34268 17.2124 9.76353 17.2966 10.1984H24.7034C24.7876 9.76353 24.8717 9.34268 24.9279 8.93587H17.0721ZM24.7034 10.1984C24.7876 9.76353 24.8717 9.34268 24.9279 8.93587H17.0721C17.1423 9.34268 17.2124 9.76353 17.2966 10.1984H24.7034ZM17.2966 32.0681C17.2124 32.503 17.1283 32.9238 17.0721 33.3307H24.9279C24.8577 32.9238 24.7876 32.503 24.7034 32.0681H17.2966ZM17.5491 11.3206C17.6473 11.7275 17.7595 12.1483 17.8858 12.5832H24.1142C24.2405 12.1483 24.3527 11.7275 24.4509 11.3206H17.5491ZM17.5491 30.9459H24.4509C24.3527 30.5391 24.2405 30.1182 24.1142 29.6834H17.8858C17.7595 30.1182 17.6473 30.5391 17.5491 30.9459ZM23.7635 13.7054H18.2365C18.3768 14.1263 18.5311 14.5471 18.6994 14.9679H23.2866C23.4689 14.5471 23.6232 14.1263 23.7635 13.7054ZM23.7635 28.5611C23.6232 28.1403 23.4689 27.7194 23.3006 27.2986H18.7134C18.5451 27.7194 18.3908 28.1403 18.2505 28.5611H23.7635ZM19.1763 16.0902C19.6814 17.1844 20.2705 18.2786 21 19.3447C21.7154 18.2786 22.3186 17.1844 22.8236 16.0902H19.1763ZM19.1763 26.1763H22.8236C22.3186 25.0822 21.7295 23.988 21 22.9218C20.2846 23.988 19.6814 25.0822 19.1763 26.1763ZM21 0C9.3988 0 0 9.3988 0 21C0 32.5872 9.3988 42 21 42C32.6012 42 42 32.6012 42 21C42 9.3988 32.6012 0 21 0ZM27.3828 37.511L26.3307 37.483L25.2786 37.4549C25.2786 37.4268 25.3066 36.2625 25.0822 34.4669H16.9038C16.6934 36.2625 16.7074 37.4268 16.7074 37.4549L14.6032 37.511C14.5892 37.1323 14.3928 28.3928 19.6673 21.1403C14.3928 13.8878 14.5892 5.1483 14.6032 4.76954L16.7074 4.82565C16.7074 4.85371 16.6794 6.01804 16.9038 7.81363H25.0822C25.2926 6.01804 25.2786 4.85371 25.2786 4.82565L27.3828 4.76954C27.3968 5.1483 27.5932 13.8878 22.3186 21.1403C27.5932 28.3928 27.3968 37.1323 27.3828 37.511ZM17.2966 10.1984H24.7034C24.7876 9.76353 24.8717 9.34268 24.9279 8.93587H17.0721C17.1283 9.34268 17.2124 9.76353 17.2966 10.1984ZM17.0721 33.3307H24.9279C24.8577 32.9238 24.7876 32.503 24.7034 32.0681H17.2966C17.2124 32.503 17.1283 32.9379 17.0721 33.3307ZM17.8858 12.5832H24.1142C24.2405 12.1483 24.3527 11.7275 24.4509 11.3206H17.5491C17.6473 11.7275 17.7595 12.1483 17.8858 12.5832ZM17.5491 30.9459H24.4509C24.3527 30.5391 24.2405 30.1182 24.1142 29.6834H17.8858C17.7595 30.1182 17.6473 30.5391 17.5491 30.9459ZM18.6994 14.9679H23.2866C23.4549 14.5471 23.6092 14.1263 23.7495 13.7054H18.2224C18.3768 14.1263 18.5311 14.5471 18.6994 14.9679ZM18.2365 28.5611H23.7635C23.6232 28.1403 23.4689 27.7194 23.3006 27.2986H18.7134C18.5311 27.7194 18.3768 28.1543 18.2365 28.5611ZM21 19.3447C21.7154 18.2786 22.3186 17.1844 22.8236 16.0902H19.1763C19.6814 17.1844 20.2846 18.2786 21 19.3447ZM19.1763 26.1763H22.8236C22.3186 25.0822 21.7295 23.988 21 22.9218C20.2846 23.988 19.6814 25.0822 19.1763 26.1763ZM21 22.9218C20.2846 23.988 19.6814 25.0822 19.1763 26.1763H22.8236C22.3186 25.0822 21.7154 23.988 21 22.9218ZM19.1763 16.0902C19.6814 17.1844 20.2705 18.2786 21 19.3447C21.7154 18.2786 22.3186 17.1844 22.8236 16.0902H19.1763ZM23.3006 27.2986H18.7134C18.5451 27.7194 18.3908 28.1403 18.2505 28.5611H23.7776C23.6232 28.1543 23.4689 27.7335 23.3006 27.2986ZM18.2365 13.7054C18.3768 14.1263 18.5311 14.5471 18.6994 14.9679H23.2866C23.4549 14.5471 23.6092 14.1263 23.7495 13.7054H18.2365ZM24.1142 29.6834H17.8858C17.7595 30.1182 17.6473 30.5391 17.5491 30.9459H24.4509C24.3527 30.5391 24.2405 30.1182 24.1142 29.6834ZM17.5491 11.3206C17.6473 11.7275 17.7595 12.1483 17.8858 12.5832H24.1142C24.2405 12.1483 24.3527 11.7275 24.4509 11.3206H17.5491ZM24.7034 32.0681H17.2966C17.2124 32.503 17.1283 32.9238 17.0721 33.3307H24.9279C24.8717 32.9379 24.7876 32.503 24.7034 32.0681ZM17.0721 8.93587C17.1423 9.34268 17.2124 9.76353 17.2966 10.1984H24.7034C24.7876 9.76353 24.8717 9.34268 24.9279 8.93587H17.0721ZM17.0721 8.93587C17.1423 9.34268 17.2124 9.76353 17.2966 10.1984H24.7034C24.7876 9.76353 24.8717 9.34268 24.9279 8.93587H17.0721ZM17.5491 11.3206C17.6473 11.7275 17.7595 12.1483 17.8858 12.5832H24.1142C24.2405 12.1483 24.3527 11.7275 24.4509 11.3206H17.5491ZM24.1142 29.6834H17.8858C17.7595 30.1182 17.6473 30.5391 17.5491 30.9459H24.4509C24.3527 30.5391 24.2405 30.1182 24.1142 29.6834ZM18.2365 13.7054C18.3768 14.1263 18.5311 14.5471 18.6994 14.9679H23.2866C23.4549 14.5471 23.6092 14.1263 23.7495 13.7054H18.2365ZM19.1763 16.0902C19.6814 17.1844 20.2705 18.2786 21 19.3447C21.7154 18.2786 22.3186 17.1844 22.8236 16.0902H19.1763ZM21 22.9218C20.2846 23.988 19.6814 25.0822 19.1763 26.1763H22.8236C22.3186 25.0822 21.7154 23.988 21 22.9218ZM23.3006 27.2986H18.7134C18.5451 27.7194 18.3908 28.1403 18.2505 28.5611H23.7776C23.6232 28.1543 23.4689 27.7335 23.3006 27.2986ZM19.1763 16.0902C19.6814 17.1844 20.2705 18.2786 21 19.3447C21.7154 18.2786 22.3186 17.1844 22.8236 16.0902H19.1763ZM18.2365 13.7054C18.3768 14.1263 18.5311 14.5471 18.6994 14.9679H23.2866C23.4549 14.5471 23.6092 14.1263 23.7495 13.7054H18.2365ZM24.1142 29.6834H17.8858C17.7595 30.1182 17.6473 30.5391 17.5491 30.9459H24.4509C24.3527 30.5391 24.2405 30.1182 24.1142 29.6834ZM21 22.9218C20.2846 23.988 19.6814 25.0822 19.1763 26.1763H22.8236C22.3186 25.0822 21.7154 23.988 21 22.9218ZM23.3006 27.2986H18.7134C18.5451 27.7194 18.3908 28.1403 18.2505 28.5611H23.7776C23.6232 28.1543 23.4689 27.7335 23.3006 27.2986ZM17.5491 11.3206C17.6473 11.7275 17.7595 12.1483 17.8858 12.5832H24.1142C24.2405 12.1483 24.3527 11.7275 24.4509 11.3206H17.5491ZM24.7034 32.0681H17.2966C17.2124 32.503 17.1283 32.9238 17.0721 33.3307H24.9279C24.8717 32.9379 24.7876 32.503 24.7034 32.0681ZM17.0721 8.93587C17.1423 9.34268 17.2124 9.76353 17.2966 10.1984H24.7034C24.7876 9.76353 24.8717 9.34268 24.9279 8.93587H17.0721ZM17.0721 8.93587C17.1423 9.34268 17.2124 9.76353 17.2966 10.1984H24.7034C24.7876 9.76353 24.8717 9.34268 24.9279 8.93587H17.0721ZM17.5491 11.3206C17.6473 11.7275 17.7595 12.1483 17.8858 12.5832H24.1142C24.2405 12.1483 24.3527 11.7275 24.4509 11.3206H17.5491ZM18.2365 13.7054C18.3768 14.1263 18.5311 14.5471 18.6994 14.9679H23.2866C23.4549 14.5471 23.6092 14.1263 23.7495 13.7054H18.2365ZM19.1763 16.0902C19.6814 17.1844 20.2705 18.2786 21 19.3447C21.7154 18.2786 22.3186 17.1844 22.8236 16.0902H19.1763ZM19.1763 16.0902C19.6814 17.1844 20.2705 18.2786 21 19.3447C21.7154 18.2786 22.3186 17.1844 22.8236 16.0902H19.1763ZM18.2365 13.7054C18.3768 14.1263 18.5311 14.5471 18.6994 14.9679H23.2866C23.4549 14.5471 23.6092 14.1263 23.7495 13.7054H18.2365ZM17.5491 11.3206C17.6473 11.7275 17.7595 12.1483 17.8858 12.5832H24.1142C24.2405 12.1483 24.3527 11.7275 24.4509 11.3206H17.5491ZM24.1142 29.6834H17.8858C17.7595 30.1182 17.6473 30.5391 17.5491 30.9459H24.4509C24.3527 30.5391 24.2405 30.1182 24.1142 29.6834ZM21 22.9218C20.2846 23.988 19.6814 25.0822 19.1763 26.1763H22.8236C22.3186 25.0822 21.7154 23.988 21 22.9218ZM23.3006 27.2986H18.7134C18.5451 27.7194 18.3908 28.1403 18.2505 28.5611H23.7776C23.6232 28.1543 23.4689 27.7335 23.3006 27.2986ZM24.7034 32.0681H17.2966C17.2124 32.503 17.1283 32.9238 17.0721 33.3307H24.9279C24.8717 32.9379 24.7876 32.503 24.7034 32.0681ZM17.0721 8.93587C17.1423 9.34268 17.2124 9.76353 17.2966 10.1984H24.7034C24.7876 9.76353 24.8717 9.34268 24.9279 8.93587H17.0721ZM17.0721 8.93587C17.1423 9.34268 17.2124 9.76353 17.2966 10.1984H24.7034C24.7876 9.76353 24.8717 9.34268 24.9279 8.93587H17.0721ZM17.5491 11.3206C17.6473 11.7275 17.7595 12.1483 17.8858 12.5832H24.1142C24.2405 12.1483 24.3527 11.7275 24.4509 11.3206H17.5491ZM18.2365 13.7054C18.3768 14.1263 18.5311 14.5471 18.6994 14.9679H23.2866C23.4549 14.5471 23.6092 14.1263 23.7495 13.7054H18.2365ZM19.1763 16.0902C19.6814 17.1844 20.2705 18.2786 21 19.3447C21.7154 18.2786 22.3186 17.1844 22.8236 16.0902H19.1763ZM19.1763 16.0902C19.6814 17.1844 20.2705 18.2786 21 19.3447C21.7154 18.2786 22.3186 17.1844 22.8236 16.0902H19.1763ZM18.2365 13.7054C18.3768 14.1263 18.5311 14.5471 18.6994 14.9679H23.2866C23.4549 14.5471 23.6092 14.1263 23.7495 13.7054H18.2365ZM17.5491 11.3206C17.6473 11.7275 17.7595 12.1483 17.8858 12.5832H24.1142C24.2405 12.1483 24.3527 11.7275 24.4509 11.3206H17.5491ZM17.0721 8.93587C17.1423 9.34268 17.2124 9.76353 17.2966 10.1984H24.7034C24.7876 9.76353 24.8717 9.34268 24.9279 8.93587H17.0721ZM17.0721 8.93587C17.1423 9.34268 17.2124 9.76353 17.2966 10.1984H24.7034C24.7876 9.76353 24.8717 9.34268 24.9279 8.93587H17.0721ZM17.5491 11.3206C17.6473 11.7275 17.7595 12.1483 17.8858 12.5832H24.1142C24.2405 12.1483 24.3527 11.7275 24.4509 11.3206H17.5491ZM19.1763 16.0902C19.6814 17.1844 20.2705 18.2786 21 19.3447C21.7154 18.2786 22.3186 17.1844 22.8236 16.0902H19.1763ZM18.2365 13.7054C18.3768 14.1263 18.5311 14.5471 18.6994 14.9679H23.2866C23.4549 14.5471 23.6092 14.1263 23.7495 13.7054H18.2365ZM17.5491 11.3206C17.6473 11.7275 17.7595 12.1483 17.8858 12.5832H24.1142C24.2405 12.1483 24.3527 11.7275 24.4509 11.3206H17.5491ZM19.1763 16.0902C19.6814 17.1844 20.2705 18.2786 21 19.3447C21.7154 18.2786 22.3186 17.1844 22.8236 16.0902H19.1763ZM18.2365 13.7054C18.3768 14.1263 18.5311 14.5471 18.6994 14.9679H23.2866C23.4549 14.5471 23.6092 14.1263 23.7495 13.7054H18.2365ZM17.0721 8.93587C17.1423 9.34268 17.2124 9.76353 17.2966 10.1984H24.7034C24.7876 9.76353 24.8717 9.34268 24.9279 8.93587H17.0721ZM17.5491 11.3206C17.6473 11.7275 17.7595 12.1483 17.8858 12.5832H24.1142C24.2405 12.1483 24.3527 11.7275 24.4509 11.3206H17.5491ZM19.1763 16.0902C19.6814 17.1844 20.2705 18.2786 21 19.3447C21.7154 18.2786 22.3186 17.1844 22.8236 16.0902H19.1763ZM18.2365 13.7054C18.3768 14.1263 18.5311 14.5471 18.6994 14.9679H23.2866C23.4549 14.5471 23.6092 14.1263 23.7495 13.7054H18.2365ZM17.0721 8.93587C17.1423 9.34268 17.2124 9.76353 17.2966 10.1984H24.7034C24.7876 9.76353 24.8717 9.34268 24.9279 8.93587H17.0721ZM17.5491 11.3206C17.6473 11.7275 17.7595 12.1483 17.8858 12.5832H24.1142C24.2405 12.1483 24.3527 11.7275 24.4509 11.3206H17.5491ZM19.1763 16.0902C19.6814 17.1844 20.2705 18.2786 21 19.3447C21.7154 18.2786 22.3186 17.1844 22.8236 16.0902H19.1763ZM18.2365 13.7054C18.3768 14.1263 18.5311 14.5471 18.6994 14.9679H23.2866C23.4549 14.5471 23.6092 14.1263 23.7495 13.7054H18.2365ZM17.0721 8.93587C17.1423 9.34268 17.2124 9.76353 17.2966 10.1984H24.7034C24.7876 9.76353 24.8717 9.34268 24.9279 8.93587H17.0721Z" fill="#FF6D6D"/>
</svg>
