<svg width="42" height="42" viewBox="0 0 42 42" fill="none" xmlns="http://www.w3.org/2000/svg">
<path d="M21 0C9.3988 0 0 9.3988 0 21C0 32.5872 9.3988 42 21 42C32.6012 42 42 32.6012 42 21C42 9.3988 32.6012 0 21 0ZM20.4669 21.7014C19.4429 23.6232 17.7735 24.0441 16.5391 24.0581C16.5391 24.2966 16.525 24.5491 16.497 24.8016L18.7415 24.8297C18.8958 24.8297 19.008 24.9559 19.008 25.0962C19.008 25.2365 18.8818 25.3627 18.7415 25.3627L16.3988 25.3347C16.3146 25.6713 16.1884 26.022 16.0341 26.3587L17.521 27.0601C17.6613 27.1303 17.7174 27.2846 17.6473 27.4108C17.6052 27.509 17.507 27.5651 17.4088 27.5651C17.3667 27.5651 17.3246 27.5651 17.2966 27.5371L15.7956 26.8216C15.6273 27.1022 15.4589 27.3407 15.2766 27.523C15.7675 27.8878 16.2866 28.3928 16.5391 29.0381C16.7916 29.6553 16.7776 30.3006 16.525 30.9599C16.4689 31.1002 16.3006 31.1703 16.1603 31.1002C16.0341 31.0441 15.978 30.8898 16.02 30.7635C16.2164 30.2164 16.2305 29.7114 16.0341 29.2345C15.7956 28.6453 15.3046 28.1824 14.8277 27.8597C14 28.3788 13.0461 28.2244 12.0361 27.7475C11.0261 27.2705 10.2124 26.5972 10.0581 25.6012C9.49699 25.4329 8.80962 25.3347 8.19238 25.5311C7.7014 25.6854 7.30862 26.022 7.01403 26.513C6.94389 26.6393 6.78958 26.6814 6.66333 26.6252C6.52305 26.5551 6.46693 26.3868 6.53707 26.2465C6.88778 25.6293 7.39278 25.2084 8.02405 25.012C8.69739 24.8016 9.42685 24.8717 10.0301 25.026C10.0441 24.7595 10.1142 24.479 10.2124 24.1703L8.69739 23.4549C8.5992 23.4128 8.54309 23.3146 8.54309 23.2164C8.54309 23.1743 8.55711 23.1463 8.57114 23.1042C8.64128 22.9639 8.79559 22.9078 8.92184 22.978L10.4088 23.6794C10.5631 23.3427 10.7595 23.0341 10.9699 22.7535L9.46894 21C9.42685 20.9439 9.41282 20.8878 9.41282 20.8317C9.41282 20.7615 9.44088 20.6774 9.51102 20.6212C9.62324 20.523 9.79158 20.5371 9.88978 20.6493L11.3487 22.3747C11.517 22.1924 11.6994 22.01 11.8958 21.8557C11.1242 20.9018 10.3948 19.3307 11.2224 17.3246C11.2786 17.1844 11.4469 17.1142 11.5872 17.1844C11.7134 17.2405 11.7695 17.3948 11.7134 17.521C10.9559 19.3447 11.6433 20.7475 12.3447 21.5892L14.4068 20.6633C14.3928 20.6353 14.3788 20.6072 14.3647 20.5792C14.2946 20.3968 14.2525 20.2144 14.2806 20.0321C14.2946 19.8357 14.491 19.7234 14.6733 19.7936C14.7715 19.8357 14.8417 19.9339 14.8417 20.0461C14.8417 20.0461 14.8417 20.0601 14.8417 20.0741C14.8277 20.1723 14.8417 20.2705 14.8838 20.3687C14.8978 20.3828 14.8978 20.4108 14.9118 20.4248C15.2064 20.2565 15.5852 20.4108 15.6974 20.7054H15.7114C15.7956 20.6633 15.8798 20.6072 15.9499 20.5371C16.0341 20.4389 16.1603 20.3968 16.2725 20.4529C16.3848 20.495 16.4549 20.6072 16.4549 20.7194C16.4549 20.7755 16.4409 20.8317 16.3988 20.8878C16.2725 21.0281 16.1182 21.1543 15.9359 21.2244C15.9078 21.2385 15.8657 21.2525 15.8377 21.2665L16.4549 23.5391C17.5491 23.5391 19.0641 23.1884 19.99 21.4489C20.0601 21.3226 20.2144 21.2665 20.3407 21.3367C20.481 21.4068 20.5371 21.5751 20.4669 21.7014ZM20.1583 12.6954C18.1102 12.7375 16.0481 14.3086 15.0521 15.1784C14.6874 15.501 14.1543 15.487 13.8036 15.1643L13.7896 15.1503C13.3968 14.7715 13.3968 14.1403 13.8036 13.7896C14.982 12.7515 17.4509 10.8998 20.1022 10.8297C21.6313 10.7876 22.978 11.3347 24.1283 12.4429C26.6954 14.9118 28.9258 14.6453 29.978 14.2946C30.3848 14.1683 30.8196 14.3226 31.0441 14.6733L31.0581 14.6874C31.3808 15.2064 31.1423 15.8798 30.5531 16.0621C30.1603 16.1884 29.6974 16.2866 29.1924 16.3427C27.4389 16.497 25.1242 16.006 22.8236 13.7755C22.0521 13.0321 21.1683 12.6673 20.1583 12.6954ZM35.491 22.8938L35.2525 24.5772C35.2244 24.7455 35.0701 24.8717 34.9018 24.8437C34.7335 24.8156 34.6072 24.6613 34.6353 24.493L34.7896 23.3988C34.8176 23.2305 34.7054 23.0762 34.5371 23.0481L32.7555 22.6834C32.6152 22.9639 32.4329 23.2445 32.2505 23.525L33.8497 23.6513C34.018 23.6653 34.1583 23.8196 34.1443 23.988L33.9619 26.2184C33.9479 26.3868 33.7936 26.5271 33.6252 26.513C33.4569 26.499 33.3166 26.3447 33.3307 26.1763L33.4709 24.5912C33.485 24.4088 33.3587 24.2685 33.1763 24.2545L31.8297 24.1423C31.3387 24.7876 30.7776 25.4048 30.1603 25.98L31.2826 27.6072C31.3667 27.7194 31.3527 27.8878 31.2685 28L28.9258 30.7355C28.8136 30.8617 28.6172 30.8898 28.477 30.7635C28.3367 30.6513 28.3226 30.4549 28.4349 30.3146L30.4689 27.9439C30.5671 27.8317 30.5671 27.6774 30.483 27.5511L29.6834 26.3868C29.515 26.527 29.3607 26.6673 29.1924 26.7936L29.7395 27.523C29.8236 27.6493 29.8236 27.8176 29.7114 27.9299L26.8357 31.0441C26.7094 31.1703 26.513 31.1844 26.3868 31.0581C26.2605 30.9459 26.2465 30.7355 26.3727 30.6092L28.8838 27.8878C28.982 27.7755 28.996 27.6072 28.9118 27.481L28.6733 27.1723C26.8216 28.477 24.9699 28.996 24.2405 27.5932C22.5431 24.3667 26.99 21.3507 29.978 20.3126C31.2405 19.8637 32.0541 19.8497 32.5591 19.9759C33.0922 20.1022 33.4289 20.6353 33.3307 21.1824C33.2745 21.477 33.1763 21.7715 33.0501 22.0942L35.2665 22.5571C35.4068 22.5852 35.519 22.7395 35.491 22.8938Z" fill="#FF6D6D"/>
</svg>
