<svg width="42" height="42" viewBox="0 0 42 42" fill="none" xmlns="http://www.w3.org/2000/svg">
<path d="M21.014 0C9.41427 0 0 9.41114 0 21.007C0 32.6029 9.40026 42 21 42C32.5997 42 42 32.6029 42 21.007C42.014 9.41114 32.6137 0 21.014 0ZM9.56838 18.9063C6.99066 16.3294 6.99066 12.142 9.56838 9.56519C12.1461 6.98833 16.3349 6.98833 18.9126 9.56519L24.9506 15.6012L15.6204 24.9423L9.56838 18.9063ZM32.4456 32.4348C29.8679 35.0117 25.6791 35.0117 23.1014 32.4348L17.0494 26.3988L18.2542 25.1944L24.2922 31.2304C26.2115 33.1491 29.3075 33.1491 31.2268 31.2304C33.1461 29.3258 33.1461 26.2167 31.2268 24.2981L25.2028 18.2621L26.4076 17.0577L32.4456 23.0937C35.0233 25.6706 35.0233 29.858 32.4456 32.4348Z" fill="#FF6D6D"/>
</svg>
