<svg width="42" height="42" viewBox="0 0 42 42" fill="none" xmlns="http://www.w3.org/2000/svg">
<path d="M21 0C9.3988 0 0 9.3988 0 21C0 32.5872 9.3988 42 21 42C32.6012 42 42 32.6012 42 21C42 9.3988 32.6012 0 21 0ZM27.6212 22.8236C26.3026 24.9419 23.988 22.8657 23.9319 22.8236C24.002 23.006 26.5411 30.2164 25.1944 37.988C24.9699 38.0441 24.7455 38.1002 24.521 38.1423C23.3848 38.3808 22.2064 38.493 21.014 38.493C14.7014 38.493 9.16032 35.1262 6.07415 30.1042C8.08016 28.7856 11.1102 26.4429 11.8677 23.8898C13.018 19.99 17.479 15.1503 17.479 15.1503C17.479 15.1503 13.5792 15.8377 13.9719 13.1864C14.3647 10.5351 18.8116 11.4329 18.8116 11.4329C16.2866 9.07615 18.2926 8.55711 18.2926 8.55711C21.7996 7.53307 23.3427 11.1242 23.3427 11.1242C23.0481 8.43086 24.1984 8.89379 24.1984 8.89379C27.3968 9.31463 26.8076 13.2846 26.7936 13.4248C26.8357 13.3267 27.7335 11.4609 28.5751 13.2565C29.4309 15.0942 27.1162 16.9459 27.1162 16.9459C27.1162 16.9459 29.6413 17.4228 29.6413 19.6393L26.4289 19.2886C26.4148 19.3026 28.9399 20.6774 27.6212 22.8236ZM24.016 15.0661C23.4269 15.0661 22.9499 15.5431 22.9499 16.1323C22.9499 16.7214 23.4269 17.1984 24.016 17.1984C24.6052 17.1984 25.0822 16.7214 25.0822 16.1323C25.0822 15.5431 24.6052 15.0661 24.016 15.0661Z" fill="#FF6D6D"/>
<path d="M21 0C9.3988 0 0 9.3988 0 21C0 32.5872 9.3988 42 21 42C32.6012 42 42 32.6012 42 21C42 9.3988 32.6012 0 21 0ZM27.6212 22.8236C26.3026 24.9419 23.988 22.8657 23.9319 22.8236C24.002 23.006 26.5411 30.2164 25.1944 37.988C24.9699 38.0441 24.7455 38.1002 24.521 38.1423C23.3848 38.3808 22.2064 38.493 21.014 38.493C14.7014 38.493 9.16032 35.1262 6.07415 30.1042C8.08016 28.7856 11.1102 26.4429 11.8677 23.8898C13.018 19.99 17.479 15.1503 17.479 15.1503C17.479 15.1503 13.5792 15.8377 13.9719 13.1864C14.3647 10.5351 18.8116 11.4329 18.8116 11.4329C16.2866 9.07615 18.2926 8.55711 18.2926 8.55711C21.7996 7.53307 23.3427 11.1242 23.3427 11.1242C23.0481 8.43086 24.1984 8.89379 24.1984 8.89379C27.3968 9.31463 26.8076 13.2846 26.7936 13.4248C26.8357 13.3267 27.7335 11.4609 28.5751 13.2565C29.4309 15.0942 27.1162 16.9459 27.1162 16.9459C27.1162 16.9459 29.6413 17.4228 29.6413 19.6393L26.4289 19.2886C26.4148 19.3026 28.9399 20.6774 27.6212 22.8236ZM24.016 15.0661C23.4269 15.0661 22.9499 15.5431 22.9499 16.1323C22.9499 16.7214 23.4269 17.1984 24.016 17.1984C24.6052 17.1984 25.0822 16.7214 25.0822 16.1323C25.0822 15.5431 24.6052 15.0661 24.016 15.0661Z" fill="#FF6D6D"/>
</svg>
